<svg width="133" height="61" viewBox="0 0 133 61" fill="none" xmlns="http://www.w3.org/2000/svg">
<path fill-rule="evenodd" clip-rule="evenodd" d="M112.538 36.9105V15.8105H20.5376V45.1105H100.538V36.9105H112.538ZM104.538 27.5105V23.4105C104.538 23.4105 104.438 22.6105 103.738 22.6105H93.0376C92.3376 22.6105 92.2376 23.3105 92.2376 23.4105V27.5105C92.2376 27.5105 92.2376 28.3105 93.0376 28.3105H103.738C104.538 28.3105 104.538 27.5105 104.538 27.5105ZM45.2376 34.8105C45.2376 34.7105 45.2376 34.0105 44.4376 34.0105H41.7376C41.1376 34.0105 40.9376 34.5105 40.9376 34.9105V35.7105C40.9376 36.9105 39.8376 37.1105 39.5376 37.1105H33.7376C32.6376 37.0105 32.4376 36.0105 32.4376 35.7105V31.5105L28.6376 27.7105V24.0105C28.7376 22.7105 29.9376 22.6105 30.0376 22.6105H39.4376C40.9376 22.7105 40.9376 24.1105 40.9376 24.1105V25.3105C40.9376 25.3105 40.9376 26.1105 41.7376 26.1105H44.4376C44.4376 26.1105 45.2376 26.1105 45.2376 25.3105V20.3105C45.2376 19.2105 44.3376 18.6105 43.5376 18.6105H25.9376C25.7376 18.6105 24.4376 18.7105 24.3376 20.3105V39.4105C24.3376 40.9105 25.8376 41.1105 26.0376 41.1105H43.7376C44.3376 41.1105 45.3376 40.9105 45.4376 39.4105C45.2376 38.0105 45.2376 34.9105 45.2376 34.8105ZM70.2376 18.8105C70.9376 18.8105 71.0376 19.5105 71.0376 19.6105C71.0376 19.6105 71.0376 40.3105 71.1376 40.3105V40.4105C71.1376 40.4105 71.1376 41.1105 70.3376 41.1105H67.6376C67.3376 41.1105 66.8376 41.0105 66.7376 40.3105V33.7105C66.7376 33.6105 66.5376 32.4105 65.3376 32.4105H59.6376C58.3376 32.4105 58.2376 33.6105 58.2376 33.8105V39.5105C58.1376 40.9105 57.0376 41.2105 56.5376 41.2105H51.6376C50.2376 41.1105 49.9376 39.9105 49.9376 39.5105V19.6105C49.9376 19.5105 50.0376 18.8105 50.7376 18.8105H53.4376C54.2376 18.8105 54.3376 19.5105 54.3376 19.6105V27.1105C54.3376 28.4105 55.6376 28.5105 55.7376 28.5105H65.3376C65.5376 28.5105 66.7376 28.4105 66.7376 27.1105V19.6105C66.7376 19.6105 66.7376 18.8105 67.5376 18.8105H70.2376ZM83.8376 31.6105L80.0376 27.8105V19.6105C80.0376 19.5105 79.9376 18.8105 79.2376 18.8105H76.4376C75.6376 18.8105 75.5376 19.5105 75.5376 19.6105V39.5105C75.5376 39.9105 75.8376 41.2105 77.2376 41.2105H82.2376C82.4376 41.2105 83.9376 41.1105 83.9376 39.5105C83.8376 37.9105 83.8376 31.6105 83.8376 31.6105ZM107.138 18.7105C108.338 18.7105 108.838 19.8105 108.838 20.4105C108.838 20.4105 108.838 30.3105 108.738 30.7105C108.738 31.1105 108.538 32.3105 107.038 32.4105H97.4376C96.1376 32.5105 96.0376 33.6105 96.0376 33.8105V39.5105C95.9376 41.0105 94.8376 41.2105 94.3376 41.2105H89.3376C87.8376 41.2105 87.6376 39.8105 87.6376 39.5105V20.4105C87.6376 20.2105 87.7376 18.7105 89.3376 18.7105H107.138Z" fill="#EA453F"/>
</svg>
