<svg width="216" height="215" viewBox="0 0 216 215" fill="none" xmlns="http://www.w3.org/2000/svg">
<path d="M39.6775 142.133H39.2666V142.544V196.306C39.2666 198.346 40.9222 200 42.9645 200H174.035C176.078 200 177.733 198.346 177.733 196.306V142.544V142.133H177.322H39.6775Z" fill="url(#paint0_linear_24502_48406)" stroke="white" stroke-width="2"/>
<path d="M55.2379 166.267H53.3733L48.6641 160.306V166.267H46.5V156.626H48.3646L53.0603 162.574V156.626H55.2379V166.267ZM60.0873 166.417C58.1274 166.417 56.5077 164.868 56.5077 162.873C56.5077 160.877 58.1274 159.328 60.0873 159.328C62.0472 159.328 63.6668 160.877 63.6668 162.873C63.6668 164.868 62.0472 166.417 60.0873 166.417ZM60.0873 164.502C60.9447 164.502 61.598 163.836 61.598 162.873C61.598 161.909 60.9447 161.243 60.0873 161.243C59.2298 161.243 58.5765 161.909 58.5765 162.873C58.5765 163.836 59.2298 164.502 60.0873 164.502ZM64.9311 166.267V159.478H66.9863V160.496C67.204 159.899 67.8574 159.397 68.6059 159.397C68.8101 159.397 69.0279 159.41 69.2728 159.478V161.556C68.9598 161.447 68.6876 161.393 68.3609 161.393C67.4762 161.393 66.9863 162.071 66.9863 163.049V166.267H64.9311ZM72.9305 166.417C71.1476 166.417 69.7729 164.801 69.7729 162.873C69.7729 160.944 71.1476 159.328 72.9305 159.328C73.8424 159.328 74.5094 159.79 74.7816 160.157V156.083H76.8368V166.267H74.7816V165.588C74.5094 165.955 73.8424 166.417 72.9305 166.417ZM73.3933 164.556C74.3188 164.556 74.9449 163.85 74.9449 162.873C74.9449 161.895 74.3188 161.189 73.3933 161.189C72.4678 161.189 71.8417 161.895 71.8417 162.873C71.8417 163.85 72.4678 164.556 73.3933 164.556ZM81.6587 166.267L77.698 156.626H80.0526L82.6248 163.049L85.1838 156.626H87.5657L83.6051 166.267H81.6587ZM95.2766 159.926C95.2766 161.786 93.8204 163.212 91.874 163.212H90.758V166.267H88.5939V156.626H91.874C93.8204 156.626 95.2766 158.066 95.2766 159.926ZM93.1808 159.926C93.1808 159.206 92.6228 158.663 91.8471 158.663H90.758V161.189H91.8471C92.6228 161.189 93.1808 160.632 93.1808 159.926ZM105.4 166.267H103.535L98.8262 160.306V166.267H96.6621V156.626H98.5265L103.222 162.574V156.626H105.4V166.267Z" fill="white"/>
<path d="M46.5 185.921V178.278H48.9879C50.3973 178.278 51.2515 179.226 51.2515 180.302C51.2515 181.056 50.9205 181.561 50.44 181.863C51.1768 182.132 51.7534 182.67 51.7534 183.693C51.7534 184.963 50.7497 185.921 49.2121 185.921H46.5ZM47.493 181.561H48.9879C49.7994 181.561 50.2799 181.056 50.2799 180.377C50.2799 179.732 49.7994 179.183 48.9879 179.183H47.493V181.561ZM47.493 185.017H49.2548C50.2692 185.017 50.7817 184.478 50.7817 183.725C50.7817 182.982 50.2692 182.423 49.2655 182.423H47.493V185.017ZM52.66 183.23C52.66 181.658 53.8132 180.431 55.4362 180.431C56.8349 180.431 57.9667 181.411 57.9774 183.133C57.9774 183.23 57.9774 183.294 57.9667 183.413H53.5889C53.621 184.425 54.3791 185.178 55.4362 185.178C56.2583 185.178 56.7709 184.812 57.1019 184.242L57.8279 184.748C57.3474 185.533 56.5359 186.028 55.4255 186.028C53.7705 186.028 52.66 184.812 52.66 183.23ZM55.4041 181.249C54.6033 181.249 53.8238 181.766 53.653 182.659H57.0378C56.9097 181.777 56.2156 181.249 55.4041 181.249ZM62.7509 184.414C62.7509 185.447 61.9607 186.028 60.893 186.028C59.9427 186.028 59.1205 185.619 58.8002 184.78L59.5476 184.36C59.7398 184.909 60.3164 185.21 60.9037 185.21C61.4162 185.21 61.8326 184.952 61.8326 184.489C61.8326 184.102 61.5977 183.865 60.9037 183.65L60.3698 183.477C59.4942 183.219 59.0351 182.659 59.0351 181.906C59.0458 180.98 59.8466 180.431 60.8716 180.431C61.6618 180.431 62.2811 180.765 62.6334 181.368L61.9501 181.841C61.7151 181.497 61.3521 181.228 60.8396 181.228C60.3911 181.228 59.9533 181.475 59.9533 181.874C59.9533 182.197 60.1242 182.466 60.7115 182.649L61.2987 182.832C62.217 183.111 62.7509 183.596 62.7509 184.414ZM66.9291 185.845C66.7049 185.921 66.438 185.975 66.107 185.975C65.178 185.975 64.4733 185.447 64.4733 184.328V181.389H63.3415V180.539H64.4733V179.043H65.3916V180.539H66.9291V181.389H65.3916V184.209C65.3916 184.898 65.7012 185.124 66.2778 185.124C66.502 185.124 66.7583 185.081 66.9291 185.017V185.845ZM72.7999 185.921L69.5646 178.278H70.6644L73.227 184.349L75.7789 178.278H76.8574L73.6327 185.921H72.7999ZM80.2868 178.278C81.867 178.278 82.8921 179.333 82.8921 180.711C82.8921 182.089 81.867 183.133 80.2868 183.133H78.9627V185.921H77.9697V178.278H80.2868ZM80.2868 182.207C81.3332 182.207 81.9097 181.561 81.9097 180.711C81.9097 179.861 81.3332 179.215 80.2868 179.215H78.9627V182.207H80.2868ZM90.6859 185.921H89.8317L85.219 179.968V185.921H84.226V178.278H85.0908L89.7036 184.231V178.278H90.6859V185.921ZM94.6596 184.672L95.4604 184.069C95.8662 184.715 96.4855 185.114 97.3397 185.114C98.1191 185.114 98.7384 184.683 98.7384 183.973C98.7384 183.359 98.354 182.95 97.6493 182.681L96.6456 182.293C95.4604 181.852 94.9265 181.228 94.9265 180.184C94.9265 178.935 95.9409 178.149 97.297 178.149C98.2473 178.149 99.0374 178.58 99.5072 179.193L98.7812 179.839C98.3968 179.376 97.9269 179.086 97.2756 179.086C96.5282 179.086 95.9089 179.506 95.9089 180.141C95.9089 180.786 96.2826 181.077 97.0514 181.368L97.9697 181.723C99.0908 182.153 99.7315 182.799 99.7315 183.93C99.7315 185.232 98.7278 186.05 97.3183 186.05C96.069 186.05 95.0547 185.458 94.6596 184.672ZM100.636 183.23C100.636 181.658 101.789 180.431 103.412 180.431C104.811 180.431 105.943 181.411 105.954 183.133C105.954 183.23 105.954 183.294 105.943 183.413H101.565C101.597 184.425 102.355 185.178 103.412 185.178C104.235 185.178 104.747 184.812 105.078 184.242L105.804 184.748C105.324 185.533 104.512 186.028 103.402 186.028C101.747 186.028 100.636 184.812 100.636 183.23ZM103.38 181.249C102.579 181.249 101.8 181.766 101.629 182.659H105.014C104.886 181.777 104.192 181.249 103.38 181.249ZM107.257 185.921V180.539H108.175V181.583C108.389 180.894 109.051 180.485 109.67 180.485C109.809 180.485 109.937 180.496 110.086 180.528V181.486C109.915 181.422 109.766 181.4 109.584 181.4C108.912 181.4 108.175 181.992 108.175 183.251V185.921H107.257ZM112.833 185.921L110.366 180.539H111.391L113.217 184.608L115.043 180.539H116.068L113.602 185.921H112.833ZM118.106 178.44C118.106 178.806 117.829 179.097 117.466 179.097C117.103 179.097 116.804 178.806 116.804 178.44C116.804 178.085 117.103 177.783 117.466 177.783C117.829 177.783 118.106 178.085 118.106 178.44ZM116.996 185.921V180.539H117.914V185.921H116.996ZM124.503 184.586C124.033 185.447 123.136 186.028 122.036 186.028C120.424 186.028 119.239 184.791 119.239 183.23C119.239 181.669 120.424 180.431 122.036 180.431C123.136 180.431 124.033 181.012 124.503 181.874L123.702 182.326C123.403 181.712 122.805 181.292 122.036 181.292C120.926 181.292 120.168 182.153 120.168 183.23C120.168 184.306 120.926 185.167 122.036 185.167C122.805 185.167 123.403 184.748 123.702 184.134L124.503 184.586ZM125.276 183.23C125.276 181.658 126.429 180.431 128.052 180.431C129.451 180.431 130.583 181.411 130.593 183.133C130.593 183.23 130.593 183.294 130.583 183.413H126.205C126.237 184.425 126.995 185.178 128.052 185.178C128.874 185.178 129.387 184.812 129.718 184.242L130.444 184.748C129.963 185.533 129.152 186.028 128.041 186.028C126.386 186.028 125.276 184.812 125.276 183.23ZM128.02 181.249C127.219 181.249 126.44 181.766 126.269 182.659H129.654C129.526 181.777 128.832 181.249 128.02 181.249ZM135.367 184.414C135.367 185.447 134.577 186.028 133.509 186.028C132.558 186.028 131.736 185.619 131.416 184.78L132.163 184.36C132.356 184.909 132.932 185.21 133.519 185.21C134.032 185.21 134.448 184.952 134.448 184.489C134.448 184.102 134.213 183.865 133.519 183.65L132.986 183.477C132.11 183.219 131.651 182.659 131.651 181.906C131.662 180.98 132.462 180.431 133.487 180.431C134.278 180.431 134.897 180.765 135.249 181.368L134.566 181.841C134.331 181.497 133.968 181.228 133.455 181.228C133.007 181.228 132.569 181.475 132.569 181.874C132.569 182.197 132.74 182.466 133.327 182.649L133.915 182.832C134.833 183.111 135.367 183.596 135.367 184.414Z" fill="white"/>
<path d="M177.733 143.683H38.75L38.75 17.2831C38.75 15.4699 40.2184 14 42.0299 14L174.453 14C176.265 14 177.733 15.4699 177.733 17.2831V143.683Z" fill="white"/>
<path d="M52.7002 80.65H55.0889L57.3532 75.3776H65.5891L67.8533 80.65H70.2669L62.429 62.5667H60.5132L52.7002 80.65ZM58.2489 73.2381L61.4587 65.7758L64.6684 73.2381H58.2489Z" fill="#395BB6"/>
<path d="M72.8501 80.65H78.102C83.7142 80.65 87.8334 76.7783 87.8334 71.6083C87.8334 66.4379 83.7142 62.5667 78.102 62.5667H72.8501V80.65ZM75.2444 78.434V64.7826H78.102C82.5041 64.7826 85.4133 67.6858 85.4133 71.6083C85.4133 75.5304 82.5041 78.434 78.102 78.434H75.2444Z" fill="#395BB6"/>
<path d="M96.143 80.65H98.1493L105.917 62.5667H103.319L97.1718 76.9314L90.9993 62.5667H88.3501L96.143 80.65Z" fill="#395BB6"/>
<path d="M108.5 80.65H110.567V62.5667H108.5V80.65Z" fill="#395BB6"/>
<path d="M114.183 77.9232C115.109 79.7731 117.485 81.1667 120.412 81.1667C123.715 81.1667 126.066 79.2408 126.066 76.1744C126.066 73.5138 124.565 71.9934 121.939 70.9797L119.787 70.1435C117.986 69.4592 117.11 68.775 117.11 67.255C117.11 65.7595 118.561 64.7714 120.312 64.7714C121.839 64.7714 122.939 65.4556 123.84 66.5452L125.541 65.0248C124.44 63.5803 122.589 62.5667 120.363 62.5667C117.185 62.5667 114.809 64.4165 114.809 67.356C114.809 69.8141 116.06 71.2841 118.836 72.3227L121.188 73.2349C122.839 73.8687 123.74 74.8314 123.74 76.2759C123.74 77.9483 122.289 78.9619 120.463 78.9619C118.461 78.9619 117.01 78.0243 116.06 76.5038L114.183 77.9232Z" fill="#395BB6"/>
<path d="M146.733 71.8669C146.733 66.6467 142.628 62.5667 137.433 62.5667C132.264 62.5667 128.133 66.6467 128.133 71.8669C128.133 77.087 132.264 81.1667 137.433 81.1667C142.628 81.1667 146.733 77.087 146.733 71.8669ZM130.515 71.8669C130.515 67.9137 133.506 64.7968 137.433 64.7968C141.387 64.7968 144.377 67.9137 144.377 71.8669C144.377 75.82 141.387 78.9369 137.433 78.9369C133.506 78.9369 130.515 75.82 130.515 71.8669Z" fill="#395BB6"/>
<path d="M150.35 80.65H152.7V72.4232H154.444L161.343 80.65H164.3L157.401 72.3976C160.155 71.9902 161.823 70.2073 161.823 67.5587C161.823 64.5787 159.777 62.5667 156.466 62.5667H150.35V80.65ZM152.7 70.3092V64.757H156.188C158.235 64.757 159.473 65.7246 159.473 67.5587C159.473 69.3668 158.235 70.3092 156.188 70.3092H152.7Z" fill="#395BB6"/>
<path d="M163.265 45.6225C162.601 44.3023 161.382 43.411 158.835 42.3438C156.753 41.4746 155.7 40.8805 155.058 40.1874C154.537 39.6263 154.382 39.1641 154.438 38.328C154.482 37.5468 154.681 37.0847 155.169 36.5676C155.8 35.8965 156.664 35.6654 157.705 35.8854C159.411 36.2375 160.496 37.4148 161.438 39.8903C161.77 40.7705 161.814 40.8035 162.412 40.5835L162.789 40.4404L162.778 39.4282C162.767 38.8671 162.744 37.6898 162.712 36.8206L162.667 35.2033L162.379 35.0823C160.817 34.4221 157.849 34.015 155.922 34.1911C153.729 34.3891 152.112 35.0823 150.871 36.3585C149.642 37.6238 149.077 39.1201 149.177 40.8915C149.254 42.3548 149.697 43.411 150.606 44.3242C151.447 45.1824 152.156 45.5895 154.183 46.3707C157.45 47.636 158.325 48.3951 158.314 49.9574C158.314 51.2777 157.605 52.2459 156.321 52.697C155.867 52.862 154.703 52.862 154.083 52.697C152.455 52.2679 151.214 50.8706 150.151 48.2741L149.874 47.6139L149.553 47.6249C149.376 47.636 149.132 47.6909 149.022 47.746L148.8 47.845L148.822 48.9782C148.833 49.6053 148.866 50.9146 148.888 51.9048L148.933 53.6872L149.298 53.8412C150.041 54.1603 152.278 54.6444 153.673 54.7984C153.851 54.8205 154.803 54.8205 155.8 54.8095C157.528 54.7875 157.65 54.7765 158.525 54.5564C161.094 53.8853 162.756 52.466 163.487 50.3095C163.708 49.6494 163.741 49.4403 163.775 48.4611C163.819 47.1629 163.697 46.4807 163.265 45.6225Z" fill="black"/>
<path d="M142.963 34.908C140.81 33.8316 137.475 33.9085 135.035 35.0947C132.727 36.215 131.137 38.0822 130.254 40.7182C129.79 42.0911 129.646 43.2004 129.691 44.9797C129.724 46.1 129.768 46.6821 129.89 47.2093C130.795 51.2512 133.588 53.997 137.475 54.6999C138.336 54.8537 140.28 54.8537 141.152 54.7109C142.389 54.4913 143.813 53.9531 144.719 53.338C145.812 52.6021 146.949 51.4928 146.949 51.1414C146.949 50.9327 146.573 50.4494 146.408 50.4494C146.341 50.4494 146.032 50.6032 145.734 50.8009C144.663 51.4928 143.636 51.7784 142.201 51.7784C140.235 51.7784 138.977 51.2841 137.729 50.032C137.177 49.4719 136.945 49.1753 136.658 48.6152C136.029 47.3961 135.687 46.0012 135.631 44.4196L135.609 43.7386L141.417 43.7166L147.225 43.6947L147.247 43.2993C147.258 43.0796 147.236 42.5195 147.181 42.0472C146.816 38.5325 145.392 36.1162 142.963 34.908ZM137.111 42.0252L135.642 42.0472V41.7287C135.642 41.5529 135.698 41.0916 135.753 40.7072C136.238 37.566 137.42 35.6769 138.9 35.6769C140.258 35.6769 141.097 37.533 141.273 40.9378L141.318 41.9044L139.949 41.9483C139.197 41.9813 137.917 42.0142 137.111 42.0252Z" fill="black"/>
<path d="M121.995 34.5495C121.538 34.4506 121.124 34.4396 120.242 34.4616C118.903 34.5055 117.989 34.7142 116.987 35.1755C116.661 35.3293 116.367 35.4611 116.346 35.4611C116.324 35.4611 116.324 33.4182 116.356 30.936C116.389 27.4215 116.378 26.4 116.302 26.4C116.051 26.4 108.149 27.9157 108.062 27.9816C107.997 28.0365 107.975 28.2012 107.986 28.4539C108.008 28.8932 107.964 28.8603 108.922 29.0799C109.216 29.1458 109.553 29.2776 109.673 29.3655C109.999 29.5961 110.261 30.1013 110.446 30.8152C110.587 31.3754 110.609 31.7817 110.675 35.6148C110.74 39.5248 110.729 43.5336 110.62 50.8922L110.576 53.9455L111.143 54.0773C111.959 54.264 114.31 54.6594 115.072 54.7363C116.193 54.8571 118.827 54.8352 119.655 54.7144C123.29 54.1652 126.022 52.0345 127.296 48.7835C127.633 47.9158 127.959 46.5869 128.068 45.6094C128.199 44.4562 128.123 42.1388 127.927 41.2052C127.176 37.6357 124.977 35.1755 121.995 34.5495ZM116.476 52.979C116.378 52.7154 116.258 43.5666 116.302 39.9092L116.335 37.0536L116.846 36.8998C117.184 36.801 117.586 36.7461 118.054 36.7461C118.708 36.7461 118.795 36.7681 119.349 37.0426C120.678 37.7016 121.592 39.36 122.017 41.8642C122.169 42.7867 122.19 45.3238 122.049 46.4331C121.701 49.1569 120.819 51.3645 119.644 52.4299C119.176 52.8582 118.74 53.0779 118.174 53.1877C117.771 53.2646 117.641 53.2646 116.912 53.2097C116.607 53.1877 116.541 53.1547 116.476 52.979Z" fill="black"/>
<path d="M106.904 34.15C106.004 34.15 105.527 34.2486 104.801 34.588C103.479 35.2012 102.493 36.1976 101.604 37.8181L101.323 38.3218L101.355 37.4239C101.377 36.9312 101.41 36.0115 101.431 35.3764L101.463 34.2267H101.279C101.041 34.2267 93.4013 35.7706 93.1735 35.8691C93.0217 35.9348 93 36.0005 93 36.3728C93 36.756 93.0217 36.7998 93.1735 36.8326C93.2711 36.8546 93.6178 36.9202 93.9536 36.9859C94.6257 37.1173 94.8318 37.2268 95.1133 37.5991C95.6227 38.289 95.7312 39.4934 95.7312 44.6287C95.7312 48.8224 95.6444 50.9138 95.4383 51.5708C95.2001 52.3701 94.7667 52.7861 94.0187 52.9175C93.7805 52.9613 93.4551 53.027 93.3145 53.0599L93.0434 53.1146L93.0217 53.6512C93.0108 54.0234 93.0325 54.2096 93.0976 54.2534C93.1518 54.2863 95.7637 54.3081 98.8953 54.2972L104.595 54.2753L104.617 53.6731C104.628 53.3446 104.617 53.0708 104.574 53.0708C104.13 53.0708 102.775 52.8847 102.558 52.7971C101.919 52.5234 101.604 51.943 101.474 50.7605C101.312 49.3699 101.225 45.9098 101.269 43.0849C101.312 40.227 101.312 40.2161 101.485 40.019C101.897 39.5701 102.948 39.2197 103.88 39.2197C104.628 39.2197 105.408 39.4168 106.232 39.811C106.632 40.008 106.99 40.1394 107.045 40.1285C107.153 40.0847 109.017 35.0917 109.017 34.8617C109.027 34.5004 107.966 34.15 106.904 34.15Z" fill="black"/>
<path d="M92.9414 42.8476C92.5266 39.3737 91.0243 36.8342 88.5466 35.405C85.8 33.822 81.618 33.723 78.6471 35.1851C76.5058 36.2405 74.7457 38.2743 73.9721 40.6049C73.1649 43.0125 73.1649 46.1786 73.9721 48.6411C74.4878 50.2132 75.1829 51.3675 76.2592 52.4119C77.5484 53.6651 79.2413 54.4677 81.1696 54.7425C81.8649 54.8414 84.0396 54.8414 84.7573 54.7425C85.0935 54.6985 85.6766 54.5666 86.0577 54.4677C89.5669 53.4673 91.9548 50.8288 92.7731 47.0471C92.9863 46.1456 93.0648 43.903 92.9414 42.8476ZM84.0733 53.2474C81.8985 53.885 80.3401 51.8512 79.7346 47.5858C79.544 46.2116 79.544 42.4518 79.7346 40.8798C80.1606 37.4498 81.2369 35.7128 82.9408 35.7019C83.7034 35.7019 84.1294 35.8888 84.7349 36.4714C86.1587 37.8786 86.8423 40.5719 86.8311 44.8044C86.8199 48.1794 86.4837 50.3011 85.7103 51.7413C85.3292 52.4339 84.6339 53.0825 84.0733 53.2474Z" fill="black"/>
<path d="M64.2705 28.6441H66.7815C69.6624 28.6441 70.1332 28.701 71.1533 29.2126C72.633 29.9516 73.7091 31.4068 74.662 33.942C75.0431 34.9766 75.0431 34.9652 75.895 34.7037L76.4667 34.5332L76.4107 30.8042C76.377 28.7578 76.3322 26.9274 76.3098 26.7456L76.2538 26.4272L65.257 26.4045C59.2037 26.3931 54.1369 26.4045 54.0024 26.4272L53.7334 26.4727L53.7558 27.1321L53.7782 27.7915L54.6189 27.8938C55.7063 28.0302 56.3565 28.3372 56.7376 28.9056C57.6007 30.1903 57.7577 31.9411 57.7577 40.2403C57.7577 49.0853 57.5783 51.234 56.7376 52.3481C56.3004 52.928 55.9529 53.1099 54.9777 53.2918C53.6998 53.5305 53.7446 53.4964 53.7446 54.1672C53.7446 54.5423 53.7782 54.7356 53.8455 54.7697C53.9912 54.8266 68.0594 54.8379 68.2052 54.7697C68.3957 54.6901 68.3845 53.6442 68.1939 53.5418C68.1155 53.4964 67.6447 53.4054 67.1402 53.3259C66.6358 53.2463 66.0753 53.1212 65.9072 53.0416C64.988 52.6324 64.4723 51.5068 64.2817 49.4718C64.1472 48.0166 64.0351 45.3222 64.0351 43.3327V41.5137L64.8871 41.5364C66.7142 41.5932 67.6559 41.6956 68.037 41.8661C68.8665 42.2413 69.5279 43.2645 69.8754 44.7083L70.0548 45.4814L70.7049 45.5041L71.3551 45.5268V35.8293L70.7049 35.852L70.0548 35.8747L69.8642 36.6364C69.4943 38.1258 68.9002 39.0353 68.0146 39.4559C67.6559 39.6264 67.398 39.6719 66.5349 39.7287C65.9632 39.7629 65.1673 39.797 64.7525 39.797H64.0127V37.3868C64.0127 34.9766 64.136 29.8606 64.2257 29.0648L64.2705 28.6441Z" fill="black"/>
<path d="M88.8667 105.722H95.2296C97.7177 105.722 99.6346 103.844 99.6346 101.455C99.6346 99.904 98.7986 98.6587 97.575 98.026C98.207 97.4134 98.615 96.5561 98.615 95.5355C98.615 93.1473 96.6776 91.228 94.3118 91.228H88.8667V105.722ZM92.1095 97.0869V94.1883H93.9447C94.8216 94.1883 95.454 94.8619 95.454 95.6578C95.454 96.4337 94.8216 97.0869 93.9447 97.0869H92.1095ZM92.1095 102.742V99.8426H94.9442C95.8211 99.8426 96.4736 100.496 96.4736 101.292C96.4736 102.108 95.8211 102.742 94.9647 102.742H92.1095ZM101.2 105.722H110.377V102.619H104.443V100.026H109.154V96.9236H104.443V94.3311H110.377V91.228H101.2V105.722ZM116.562 105.967C119.621 105.967 121.722 104.13 121.742 101.496C121.762 99.3118 120.396 97.9237 118.296 97.1687L117.276 96.8012C115.747 96.25 115.033 95.903 115.033 95.1271C115.033 94.3721 115.91 94.025 116.787 94.025C117.704 94.025 118.622 94.4126 119.295 95.2294L121.416 92.9836C120.07 91.5345 118.5 90.9833 116.746 90.9833C113.85 90.9833 111.75 92.6365 111.75 95.4536C111.75 97.4339 113.055 98.8424 115.4 99.6388L116.42 99.9858C117.868 100.476 118.438 100.986 118.438 101.721C118.438 102.415 117.765 102.925 116.684 102.925C115.624 102.925 114.38 102.313 113.687 101.272L111.199 103.374C112.32 105.007 114.278 105.967 116.562 105.967ZM125.788 105.722H129.051V94.3311H132.783V91.228H122.097V94.3311H125.788V105.722Z" fill="#395BB6"/>
<path d="M144.862 105.45C148.951 105.45 152.291 102.082 152.291 97.9585C152.291 93.8349 148.951 90.4667 144.862 90.4667C140.753 90.4667 137.433 93.8349 137.433 97.9585C137.433 102.082 140.753 105.45 144.862 105.45ZM144.862 102.306C142.514 102.306 140.672 100.306 140.672 97.9585C140.672 95.6109 142.514 93.6103 144.862 93.6103C147.19 93.6103 149.032 95.6109 149.032 97.9585C149.032 100.306 147.19 102.306 144.862 102.306ZM153.904 105.205H157.123V99.5303H161.515V96.4273H157.123V93.8144H162.75V90.7118H153.904V105.205Z" fill="#395BB6"/>
<path d="M104.006 129.261H94.279C94.9466 127.992 97.5097 126.618 98.7034 125.737C101.618 123.587 103.83 121.367 103.83 116.891C103.83 111.71 99.9675 109.067 95.7538 109.067C90.6976 109.067 86.9055 112.521 86.9055 117.455H92.2076C92.1724 115.798 93.5066 114.318 95.5784 114.318C97.5798 114.318 98.528 115.658 98.528 117.278C98.528 119.076 96.7373 120.662 94.7708 122.072C91.1188 124.68 86.7998 127.041 86.7998 132.715V134.513H104.006V129.261ZM115.774 134.9C121.322 134.9 125.185 130.671 125.185 124.891V119.076C125.185 113.296 121.322 109.067 115.774 109.067C110.191 109.067 106.328 113.296 106.328 119.076V124.891C106.328 130.671 110.191 134.9 115.774 134.9ZM115.774 129.649C113.316 129.649 111.631 127.887 111.631 124.891V119.076C111.631 116.08 113.316 114.318 115.774 114.318C118.197 114.318 119.882 116.08 119.882 119.076V124.891C119.882 127.887 118.197 129.649 115.774 129.649ZM144.385 129.261H134.659C135.326 127.992 137.889 126.618 139.083 125.737C141.997 123.587 144.21 121.367 144.21 116.891C144.21 111.71 140.347 109.067 136.133 109.067C131.077 109.067 127.285 112.521 127.285 117.455H132.587C132.552 115.798 133.886 114.318 135.958 114.318C137.959 114.318 138.907 115.658 138.907 117.278C138.907 119.076 137.117 120.662 135.15 122.072C131.499 124.68 127.179 127.041 127.179 132.715V134.513H144.385V129.261ZM155.522 134.9C160.788 134.9 164.3 131.764 164.3 127.358C164.3 124.538 162.684 122.635 160.999 121.825C162.298 120.803 163.597 118.864 163.597 116.433C163.597 112.521 160.754 109.067 155.416 109.067C151.062 109.067 146.638 112.133 146.638 117.455H151.94C151.905 115.763 153.309 114.318 155.416 114.318C157.031 114.318 158.295 115.375 158.261 116.891C158.225 118.477 157.207 119.605 154.995 119.605H153.099V123.869H155.276C157.523 123.869 158.998 125.103 158.962 126.9C158.928 128.521 157.558 129.649 155.522 129.649C153.239 129.649 151.659 128.556 151.413 126.265H146.146C146.357 132.01 150.887 134.9 155.522 134.9Z" fill="#395BB6"/>
<path d="M52.1834 133.041C52.1786 133.557 52.4515 134.03 52.883 134.253C53.2254 134.43 53.6182 134.424 53.9504 134.251C54.126 134.159 54.2858 134.037 54.4635 133.949L63.803 129.351C63.9772 129.266 64.1341 129.146 64.3063 129.056C64.6438 128.88 65.0393 128.88 65.3769 129.056C65.549 129.146 65.7059 129.265 65.88 129.351L75.2197 133.949C75.3974 134.037 75.5571 134.159 75.7326 134.251C76.065 134.424 76.4582 134.43 76.8006 134.253C77.2316 134.03 77.5045 133.557 77.4997 133.041V93.2218C77.4997 91.9854 76.5073 90.9833 75.2829 90.9833H54.3999C53.1756 90.9833 52.1831 91.9854 52.1831 93.2218L52.1834 133.041Z" fill="url(#paint1_linear_24502_48406)"/>
<path d="M72.9217 101.76C72.3541 101.167 71.4186 101.169 70.8537 101.765C68.368 104.369 65.737 107.281 63.2169 109.991C62.6101 110.643 61.6106 110.696 60.9369 110.116L58.2091 107.769C57.5884 107.235 56.6586 107.327 56.1507 107.973L56.1261 108.005C55.6237 108.644 55.7108 109.575 56.3227 110.105L56.3467 110.126L61.3133 114.402C61.8899 114.899 62.7519 114.86 63.2762 114.307C66.4224 111.01 69.8309 107.156 72.9173 103.922L72.9511 103.886C73.5067 103.3 73.5047 102.37 72.9465 101.786L72.9217 101.76Z" fill="white"/>
<defs>
<linearGradient id="paint0_linear_24502_48406" x1="107.688" y1="142.544" x2="107.688" y2="158.608" gradientUnits="userSpaceOnUse">
<stop stop-color="#213C83"/>
<stop offset="1" stop-color="#395BB6"/>
</linearGradient>
<linearGradient id="paint1_linear_24502_48406" x1="64.6587" y1="79.9729" x2="95.9433" y2="105.638" gradientUnits="userSpaceOnUse">
<stop offset="0.411458" stop-color="#7797EF"/>
<stop offset="0.557292" stop-color="#395BB6" stop-opacity="0.94"/>
</linearGradient>
</defs>
</svg>
