<svg width="168" height="50" viewBox="0 0 168 50" fill="none" xmlns="http://www.w3.org/2000/svg">
<g clip-path="url(#clip0_45_1882)">
<rect width="168" height="50" rx="6" fill="#A6A6A6"/>
<rect x="1.04407" y="1.01074" width="165.901" height="47.9783" rx="5" fill="black"/>
<path d="M59.0115 13.7433C59.0115 14.7887 58.7004 15.6224 58.0782 16.2322C57.3813 16.9664 56.4729 17.3398 55.3404 17.3398C54.208 17.3398 53.3369 16.9664 52.5902 16.2198C51.8435 15.4731 51.4702 14.5398 51.4702 13.4447C51.4702 12.3496 51.8435 11.4162 52.5902 10.6696C53.3369 9.92289 54.2578 9.53711 55.3404 9.53711C55.888 9.53711 56.4107 9.63666 56.896 9.82333C57.3813 10.0224 57.7795 10.2962 58.0907 10.6447L57.4062 11.3291C57.1822 11.0553 56.8835 10.8313 56.5102 10.682C56.1493 10.5202 55.7511 10.4456 55.3404 10.4456C54.5315 10.4456 53.8347 10.7318 53.2747 11.2918C52.7147 11.8642 52.4409 12.5736 52.4409 13.4322C52.4409 14.2909 52.7147 15.0002 53.2747 15.5727C53.8347 16.1327 54.5191 16.4189 55.3404 16.4189C56.0871 16.4189 56.6969 16.2073 57.1947 15.7967C57.6924 15.386 57.9787 14.8011 58.0533 14.0793H55.3404V13.1833H58.9618C58.9991 13.3824 59.0115 13.5691 59.0115 13.7433Z" fill="white" stroke="white" stroke-width="0.2" stroke-miterlimit="10"/>
<path d="M64.7484 9.71114V10.632H61.3511V12.9965H64.4124V13.8925H61.3511V16.2569H64.7484V17.1778H60.3929V9.71114H64.7484Z" fill="white" stroke="white" stroke-width="0.2" stroke-miterlimit="10"/>
<path d="M68.7929 10.632V17.1778H67.8347V10.632H65.744V9.71114H70.8711V10.632H68.7804H68.7929Z" fill="white" stroke="white" stroke-width="0.2" stroke-miterlimit="10"/>
<path d="M75.5502 17.1778H74.592V9.71114H75.5502V17.1778Z" fill="white" stroke="white" stroke-width="0.2" stroke-miterlimit="10"/>
<path d="M79.8062 10.632V17.1778H78.848V10.632H76.7573V9.71114H81.8844V10.632H79.7938H79.8062Z" fill="white" stroke="white" stroke-width="0.2" stroke-miterlimit="10"/>
<path d="M92.6987 13.4446C92.6987 14.5522 92.3253 15.473 91.5911 16.2197C90.8444 16.9664 89.936 17.3397 88.8533 17.3397C87.7707 17.3397 86.8622 16.9664 86.1156 16.2197C85.3813 15.473 85.008 14.5522 85.008 13.4446C85.008 12.337 85.3813 11.4162 86.1156 10.6695C86.8498 9.92283 87.7582 9.53705 88.8533 9.53705C89.9484 9.53705 90.8444 9.91038 91.5911 10.6695C92.3253 11.4162 92.6987 12.337 92.6987 13.4322V13.4446ZM86.0036 13.4446C86.0036 14.3033 86.2773 15.025 86.8124 15.585C87.36 16.145 88.0444 16.4313 88.8533 16.4313C89.6622 16.4313 90.3467 16.145 90.8818 15.585C91.4293 15.025 91.7031 14.3157 91.7031 13.4446C91.7031 12.5735 91.4293 11.8642 90.8818 11.3042C90.3342 10.7442 89.6622 10.4579 88.8533 10.4579C88.0444 10.4579 87.36 10.7442 86.8124 11.3042C86.2649 11.8642 86.0036 12.5859 86.0036 13.4446Z" fill="white" stroke="white" stroke-width="0.2" stroke-miterlimit="10"/>
<path d="M95.0009 17.1778H94.0427V9.71114H95.2124L98.8462 15.5227H98.8836L98.8462 14.0791V9.71114H99.8044V17.1778H98.8089L95.0133 11.0925H94.976L95.0133 12.536V17.1902L95.0009 17.1778Z" fill="white" stroke="white" stroke-width="0.2" stroke-miterlimit="10"/>
<path d="M84.7964 28.0668C81.872 28.0668 79.4827 30.2944 79.4827 33.3557C79.4827 36.417 81.872 38.6446 84.7964 38.6446C87.7209 38.6446 90.1102 36.4046 90.1102 33.3557C90.1102 30.3068 87.7209 28.0668 84.7964 28.0668ZM84.7964 36.5664C83.1911 36.5664 81.8098 35.2473 81.8098 33.3557C81.8098 31.4641 83.1911 30.145 84.7964 30.145C86.4018 30.145 87.7831 31.4517 87.7831 33.3557C87.7831 35.2597 86.4018 36.5664 84.7964 36.5664ZM73.2107 28.0668C70.2862 28.0668 67.8969 30.2944 67.8969 33.3557C67.8969 36.417 70.2862 38.6446 73.2107 38.6446C76.1351 38.6446 78.5244 36.4046 78.5244 33.3557C78.5244 30.3068 76.1351 28.0668 73.2107 28.0668ZM73.2107 36.5664C71.6053 36.5664 70.224 35.2473 70.224 33.3557C70.224 31.4641 71.6053 30.145 73.2107 30.145C74.816 30.145 76.1973 31.4517 76.1973 33.3557C76.1973 35.2597 74.816 36.5664 73.2107 36.5664ZM59.4222 29.6846V31.9246H64.7982C64.6364 33.1815 64.2133 34.1148 63.5787 34.7495C62.7947 35.5335 61.5751 36.3921 59.4347 36.3921C56.1244 36.3921 53.536 33.729 53.536 30.4188C53.536 27.1086 56.1244 24.4455 59.4347 24.4455C61.2142 24.4455 62.5209 25.1424 63.4791 26.0508L65.0596 24.4704C63.7156 23.1886 61.936 22.2055 59.4222 22.2055C54.8924 22.2055 51.0844 25.889 51.0844 30.4313C51.0844 34.9735 54.8924 38.657 59.4222 38.657C61.8738 38.657 63.7156 37.8606 65.1591 36.3548C66.64 34.8739 67.1004 32.7833 67.1004 31.1033C67.1004 30.5806 67.0631 30.0953 66.976 29.697H59.4222V29.6846ZM115.808 31.4268C115.372 30.2446 114.028 28.0544 111.278 28.0544C108.528 28.0544 106.288 30.1948 106.288 33.3433C106.288 36.305 108.528 38.6321 111.54 38.6321C113.966 38.6321 115.372 37.1513 115.945 36.2926L114.14 35.0855C113.543 35.969 112.722 36.5539 111.54 36.5539C110.357 36.5539 109.511 36.0188 108.976 34.9486L116.057 32.0241L115.82 31.4268H115.808ZM108.59 33.1939C108.528 31.153 110.171 30.1077 111.353 30.1077C112.274 30.1077 113.058 30.5681 113.319 31.2277L108.59 33.1939ZM102.841 38.321H105.168V22.7655H102.841V38.321ZM99.0329 29.2366H98.9582C98.4356 28.6144 97.44 28.0544 96.1707 28.0544C93.52 28.0544 91.0933 30.3815 91.0933 33.3681C91.0933 36.3548 93.52 38.6446 96.1707 38.6446C97.4276 38.6446 98.4356 38.0846 98.9582 37.4375H99.0329V38.1966C99.0329 40.225 97.9502 41.3077 96.208 41.3077C94.7893 41.3077 93.9058 40.2873 93.5449 39.4286L91.5164 40.2748C92.1013 41.681 93.6444 43.3984 96.208 43.3984C98.9333 43.3984 101.236 41.793 101.236 37.8855V28.3779H99.0329V29.2366ZM96.3698 36.5539C94.7644 36.5539 93.4204 35.2099 93.4204 33.3681C93.4204 31.5264 94.7644 30.145 96.3698 30.145C97.9751 30.145 99.1947 31.5139 99.1947 33.3681C99.1947 35.2224 97.9502 36.5539 96.3698 36.5539ZM126.709 22.7655H121.147V38.321H123.474V32.4224H126.722C129.298 32.4224 131.824 30.5557 131.824 27.5939C131.824 24.6321 129.298 22.7655 126.722 22.7655H126.709ZM126.772 30.2695H123.474V24.9308H126.772C128.514 24.9308 129.497 26.3744 129.497 27.5939C129.497 28.8135 128.514 30.257 126.772 30.257V30.2695ZM141.12 28.0295C139.44 28.0295 137.698 28.7761 136.976 30.4064L139.042 31.265C139.477 30.4064 140.299 30.1201 141.157 30.1201C142.352 30.1201 143.584 30.8419 143.596 32.1237V32.2855C143.173 32.049 142.277 31.6881 141.17 31.6881C138.942 31.6881 136.69 32.9077 136.69 35.185C136.69 37.2633 138.507 38.6073 140.548 38.6073C142.103 38.6073 142.974 37.9104 143.509 37.089H143.584V38.2837H145.824V32.3228C145.824 29.5601 143.758 28.017 141.095 28.017L141.12 28.0295ZM140.834 36.5539C140.075 36.5539 139.017 36.1681 139.017 35.2348C139.017 34.0401 140.336 33.5797 141.481 33.5797C142.501 33.5797 142.987 33.8037 143.596 34.1024C143.422 35.5459 142.178 36.5664 140.834 36.5664V36.5539ZM154 28.3655L151.337 35.1104H151.262L148.5 28.3655H145.998L150.142 37.7984L147.778 43.0375H150.204L156.588 28.3655H154.012H154ZM133.081 38.321H135.408V22.7655H133.081V38.321Z" fill="white"/>
<path d="M25.7849 25.1671L12.5316 39.2293C12.9422 40.76 14.336 41.8924 15.9911 41.8924C16.6507 41.8924 17.2729 41.7182 17.808 41.3946L17.8453 41.3697L32.7538 32.7706L25.7724 25.1671H25.7849Z" fill="#EA4335"/>
<path d="M39.1875 22.7778H39.1751L32.7413 19.032L25.4862 25.4907L32.7662 32.7707L39.1751 29.0747C40.2951 28.4649 41.0542 27.2827 41.0542 25.9263C41.0542 24.5698 40.3075 23.3876 39.1875 22.7903V22.7778Z" fill="#FBBC04"/>
<path d="M12.5315 12.5482C12.4569 12.8469 12.4071 13.1456 12.4071 13.4691V38.3082C12.4071 38.6318 12.4444 38.9305 12.5315 39.2291L26.2329 25.5278L12.5315 12.5482Z" fill="#4285F4"/>
<path d="M25.8844 25.8888L32.7413 19.0319L17.8453 10.3955C17.3102 10.0719 16.6756 9.88525 15.9911 9.88525C14.336 9.88525 12.9422 11.0177 12.5316 12.5359L25.8844 25.8888Z" fill="#34A853"/>
</g>
<defs>
<clipPath id="clip0_45_1882">
<rect width="168" height="50" fill="white"/>
</clipPath>
</defs>
</svg>
