<svg width="215" height="215" viewBox="0 0 215 215" fill="none" xmlns="http://www.w3.org/2000/svg">
<path fill-rule="evenodd" clip-rule="evenodd" d="M202.712 82.906C202.712 77.9692 198.704 73.9611 193.767 73.9611H20.449C15.5122 73.9611 11.5042 77.9692 11.5042 82.906V139.557C11.5042 144.494 15.5122 148.502 20.449 148.502H193.767C198.704 148.502 202.712 144.494 202.712 139.557V82.906Z" fill="white"/>
<path fill-rule="evenodd" clip-rule="evenodd" d="M170.417 70.8082C170.417 68.4384 168.493 66.5144 166.123 66.5144H48.2304C45.8605 66.5144 43.9365 68.4384 43.9365 70.8082V79.396C43.9365 81.7658 45.8605 83.6898 48.2304 83.6898H166.123C168.493 83.6898 170.417 81.7658 170.417 79.396V70.8082Z" fill="white"/>
<path fill-rule="evenodd" clip-rule="evenodd" d="M80.5124 135.664C80.0455 136.49 79.4747 136.796 78.4061 136.796H78.1108C77.5173 136.796 77.252 136.498 77.252 135.826V133.317L77.6868 133.326C78.7537 133.346 79.0462 133.395 79.3761 134.457L79.4965 134.844H79.6428V131.599H79.4962L79.3761 131.997C79.0536 133.055 78.7369 133.108 77.6866 133.128L77.252 133.137V129.881H78.0028C79.258 129.881 79.8237 130.151 80.2456 130.952L80.7242 131.848H80.863V129.714H74.9355V129.87L75.2264 129.931C75.8698 130.066 75.9989 130.384 75.9989 130.852V135.805C75.9989 136.189 75.9113 136.644 75.2288 136.757L74.9355 136.805V136.964H81.1289V134.83L80.9914 134.83L80.5124 135.664Z" fill="#15191D"/>
<path fill-rule="evenodd" clip-rule="evenodd" d="M55.3806 129.871L55.6797 129.932C56.3792 130.075 56.4736 130.493 56.4736 130.884V135.805C56.4736 136.211 56.3774 136.605 55.6797 136.747L55.3806 136.809V136.965H58.8547V136.809L58.5558 136.747C57.8586 136.605 57.7626 136.211 57.7626 135.805V130.884C57.7626 130.493 57.857 130.075 58.5558 129.932L58.8547 129.871V129.714H55.3806V129.871Z" fill="#15191D"/>
<path fill-rule="evenodd" clip-rule="evenodd" d="M125.772 129.714V132.155H125.921L126.287 131.251C126.645 130.363 127.019 129.881 127.971 129.881H128.365V135.806C128.365 136.19 128.273 136.645 127.56 136.758L127.253 136.806V136.965H130.786V136.806L130.48 136.758C129.767 136.645 129.675 136.19 129.675 135.806V129.881H130.07C131.02 129.881 131.395 130.363 131.754 131.251L132.118 132.155H132.268V129.714H125.772Z" fill="#15191D"/>
<path fill-rule="evenodd" clip-rule="evenodd" d="M122.823 129.874L123.102 129.912C123.625 129.989 124.11 130.251 124.12 131.628L124.149 134.931L121.397 131.61C120.574 130.611 120.239 130.191 119.996 129.745L119.98 129.714H117.464V129.871L117.511 129.881C118.029 129.977 118.352 130.192 118.896 130.801L119.001 130.916V134.714C119.001 136.343 118.501 136.603 117.897 136.757L117.694 136.809V136.964H120.512V136.809L120.31 136.757C119.772 136.614 119.215 136.464 119.205 134.714L119.177 131.104L124.154 137.096L124.171 137.116H124.324L124.324 131.627C124.324 130.248 124.839 129.986 125.343 129.912L125.621 129.874V129.714H122.823V129.874Z" fill="#15191D"/>
<path fill-rule="evenodd" clip-rule="evenodd" d="M93.5852 135.664C93.1183 136.49 92.5474 136.797 91.4786 136.797H91.1835C90.59 136.797 90.3248 136.498 90.3248 135.826V133.317L90.7595 133.326C91.8265 133.347 92.1189 133.396 92.4488 134.458L92.5691 134.845H92.7156V131.599H92.5689L92.4488 131.998C92.1263 133.056 91.8094 133.108 90.7593 133.129L90.3248 133.137V129.882H91.0755C92.3306 129.882 92.8963 130.151 93.3183 130.953L93.7969 131.849H93.9357V129.714H88.0083V129.871L88.2991 129.931C88.9422 130.067 89.0714 130.384 89.0714 130.853V135.805C89.0714 136.19 88.9841 136.645 88.3016 136.758L88.0083 136.806V136.965H94.2014L94.2014 134.831H94.0641L93.5852 135.664Z" fill="#15191D"/>
<path fill-rule="evenodd" clip-rule="evenodd" d="M116.243 135.664C115.777 136.49 115.207 136.797 114.138 136.797H113.842C113.248 136.797 112.983 136.498 112.983 135.826V133.317L113.418 133.326C114.485 133.347 114.778 133.396 115.106 134.458L115.228 134.845H115.374V131.599H115.228L115.106 131.998C114.785 133.056 114.468 133.108 113.418 133.129L112.983 133.137V129.882H113.734C114.989 129.882 115.554 130.151 115.977 130.953L116.455 131.849H116.593V129.714H110.667V129.871L110.958 129.931C111.6 130.067 111.73 130.384 111.73 130.853V135.805C111.73 136.19 111.642 136.645 110.961 136.758L110.667 136.806V136.965H116.86V134.831H116.723L116.243 135.664Z" fill="#15191D"/>
<path fill-rule="evenodd" clip-rule="evenodd" d="M69.5238 135.795V129.881H70.4268C72.2263 129.881 73.3011 131.174 73.3011 133.339C73.3011 135.536 72.2862 136.797 70.5169 136.797H70.2974C69.6556 136.797 69.5238 136.396 69.5238 135.795ZM70.7275 129.714H64.3779V129.874L64.6566 129.912C65.2975 130.006 65.6699 130.284 65.6781 131.423L65.7078 134.931L62.9485 131.61C62.1416 130.634 61.7887 130.192 61.5449 129.744L61.5282 129.714H59.0059V129.872L59.0532 129.88C59.5717 129.977 59.8963 130.192 60.4424 130.801L60.5471 130.916V134.715C60.5471 136.343 60.0454 136.603 59.4395 136.758L59.2365 136.809V136.964H62.0612V136.809L61.8584 136.758C61.3192 136.614 60.7618 136.465 60.7512 134.714L60.722 131.104L65.7292 137.116H65.8821V131.26C65.8821 130.345 66.2809 129.881 67.0663 129.881C67.8516 129.881 68.2495 130.345 68.2495 131.26V135.805C68.2495 136.228 68.1536 136.637 67.4561 136.756L67.1691 136.806V136.964H70.7275C71.957 136.964 72.9876 136.578 73.7083 135.848C74.3577 135.19 74.7154 134.288 74.7154 133.308C74.7154 132.333 74.3575 131.442 73.7078 130.799C72.9905 130.09 71.9598 129.714 70.7275 129.714Z" fill="#15191D"/>
<path fill-rule="evenodd" clip-rule="evenodd" d="M105.274 135.795V129.881H106.186C108.003 129.881 109.087 131.174 109.087 133.339C109.087 135.536 108.063 136.797 106.277 136.797H106.054C105.407 136.797 105.274 136.396 105.274 135.795ZM106.489 129.714H100.078V129.874L100.36 129.912C101.006 130.006 101.382 130.284 101.391 131.423L101.42 134.931L98.6343 131.61C97.8005 130.61 97.4623 130.19 97.2168 129.744L97.2002 129.714H94.6547V129.872L94.7018 129.88C95.2258 129.977 95.5534 130.192 96.1043 130.8L96.2097 130.916V134.715C96.2097 136.343 95.7034 136.604 95.0921 136.758L94.8869 136.809V136.964H97.7399V136.809L97.535 136.758C96.9896 136.614 96.4265 136.465 96.4169 134.714L96.387 131.104L101.426 137.096L101.443 137.116H101.597V131.26C101.597 130.345 102 129.881 102.793 129.881C103.585 129.881 103.987 130.345 103.987 131.26V135.805C103.987 136.228 103.891 136.637 103.187 136.756L102.896 136.806V136.964H106.489C107.73 136.964 108.771 136.578 109.499 135.848C110.155 135.19 110.515 134.288 110.515 133.308C110.515 132.333 110.155 131.443 109.499 130.799C108.774 130.09 107.734 129.714 106.489 129.714Z" fill="#15191D"/>
<path fill-rule="evenodd" clip-rule="evenodd" d="M85.0893 129.714H81.9663V129.87L82.2661 129.931C82.966 130.074 83.0622 130.469 83.0622 130.873V135.806C83.0622 136.211 82.966 136.605 82.2661 136.747L81.9663 136.808V136.965H85.5836V136.809L85.3449 136.759C84.5216 136.587 84.3661 136.419 84.3661 135.704V129.881H84.6733C85.7875 129.881 86.4522 130.637 86.4522 131.903C86.4522 133.169 85.7875 133.924 84.6733 133.924H84.5952V134.101H85.0893C86.7192 134.101 87.8574 133.197 87.8574 131.903C87.8574 130.614 86.7192 129.714 85.0893 129.714Z" fill="#15191D"/>
<path d="M47.1482 126.996C46.3049 126.996 45.4702 127.161 44.6912 127.484C43.9121 127.807 43.2044 128.28 42.6082 128.876C42.012 129.472 41.539 130.18 41.2163 130.959C40.8938 131.738 40.7277 132.573 40.7277 133.416C40.7277 134.259 40.8938 135.094 41.2163 135.873C41.539 136.652 42.012 137.36 42.6082 137.956C43.2044 138.552 43.9121 139.025 44.6912 139.348C45.4702 139.67 46.3049 139.836 47.1482 139.836C48.8509 139.836 50.484 139.16 51.6882 137.956C52.8921 136.752 53.5686 135.119 53.5686 133.416C53.5686 131.713 52.8921 130.08 51.6882 128.876C50.484 127.672 48.8509 126.996 47.1482 126.996Z" fill="#EE2E3E"/>
<path d="M50.8613 135.921C50.7342 135.85 50.773 135.873 50.1618 135.51C50.1618 135.51 49.6955 135.6 49.0908 135.731C49.0995 135.734 49.1082 135.737 49.1166 135.741C49.1258 135.747 49.1345 135.753 49.1426 135.761C49.1519 135.767 49.1606 135.775 49.1685 135.784C49.1821 135.801 49.1932 135.82 49.2008 135.841C49.204 135.851 49.206 135.86 49.2073 135.871L49.2098 135.883V135.896C49.2102 135.905 49.2094 135.913 49.2073 135.921C49.2068 135.926 49.2055 135.932 49.2035 135.937L49.1983 135.95H49.1826C49.181 135.946 49.1799 135.941 49.1788 135.937C49.1779 135.931 49.1765 135.926 49.1749 135.921L49.1685 135.905C49.1657 135.898 49.1629 135.891 49.1595 135.885L49.1489 135.864L49.1361 135.843L49.1218 135.823C49.1179 135.815 49.1103 135.81 49.1038 135.804L49.0856 135.788C49.0791 135.781 49.0739 135.777 49.0674 135.775C49.0618 135.77 49.0555 135.766 49.0492 135.762C49.0443 135.758 49.0391 135.755 49.0337 135.753C49.0294 135.75 49.0254 135.748 49.0207 135.746L48.8914 135.775C48.8952 135.775 48.8992 135.776 48.903 135.777C48.9122 135.781 48.9214 135.785 48.9302 135.79C48.9399 135.795 48.9489 135.801 48.9573 135.808C48.9663 135.816 48.9744 135.823 48.9818 135.832C48.9892 135.841 48.9958 135.85 49.0014 135.86C49.0063 135.869 49.0108 135.879 49.0142 135.889C49.0171 135.898 49.0193 135.909 49.0207 135.919V135.944C49.0216 135.952 49.0216 135.96 49.0207 135.968C49.0198 135.974 49.018 135.979 49.0155 135.985C49.0142 135.989 49.0124 135.993 49.0106 135.998H48.9962L48.991 135.985C48.9902 135.979 48.9888 135.974 48.987 135.969L48.9805 135.952L48.9715 135.933L48.9611 135.912C48.9573 135.905 48.9529 135.898 48.9481 135.891L48.934 135.871C48.9302 135.863 48.9223 135.858 48.9172 135.853L48.899 135.835C48.8938 135.829 48.8862 135.826 48.8796 135.823C48.8743 135.818 48.8687 135.814 48.8628 135.81L48.8459 135.801C48.8417 135.798 48.8375 135.796 48.8329 135.794L48.824 135.789L48.4794 135.496L48.4922 135.408L48.4561 135.203L48.4911 135.115V134.823L48.1154 135.158L48.1053 135.148L49.2073 133.851L49.1983 133.828L48.8758 133.771L48.8772 133.756H49.4546C49.5143 133.831 49.6426 133.851 49.7358 133.826L49.7396 133.813L49.623 133.626L49.6708 133.594C49.7175 133.567 49.7591 133.578 49.8043 133.644C49.8472 133.706 49.8678 133.787 49.8173 133.836L49.8262 133.849C49.9019 133.839 49.9706 133.8 50.018 133.74C50.0829 133.655 50.0724 133.524 49.9922 133.429C49.9235 133.352 49.8004 133.229 49.8004 133.229C49.8134 133.081 49.7358 132.953 49.5933 132.894C49.2823 132.77 49.0454 132.681 49.0454 132.681L48.2955 132.68L48.2931 132.662L49.0389 132.574L49.263 132.378L50.1101 132.04C50.1373 132.029 50.1618 132.012 50.182 131.991C50.2022 131.97 50.2172 131.944 50.2265 131.917C50.3367 131.615 50.6747 130.711 50.6747 130.711L51.7198 129.301L51.712 129.288L51.0254 129.777L51.0164 129.767L51.308 129.184L51.2949 129.176L50.8456 129.821L50.8328 129.816L50.8844 129.172L50.8689 129.168L50.7059 129.824H50.6902L50.4261 129.167L50.4106 129.172L50.6048 129.954L50.5815 130.322L50.5671 130.323L50.5245 130L50.062 129.214L50.0492 129.221L50.4207 130.053L50.4492 130.666H50.4337L50.3535 130.094L49.7474 129.326L49.7358 129.336L50.259 130.138L50.2927 130.98L50.2783 130.982L50.1721 130.185L49.4988 129.48L49.4871 129.491L50.0594 130.238L50.1267 131.207H50.1113L49.9572 130.287L49.2579 129.688L49.2475 129.699L49.8523 130.353L49.9558 131.363L49.9403 131.367L49.7358 130.416L49.0272 129.933L49.0182 129.946L49.6244 130.482L49.7887 131.481L49.7732 131.485L49.5103 130.551L48.837 130.182L48.8278 130.195L49.4056 130.618L49.5945 131.586L49.5803 131.59L49.2785 130.702L48.6452 130.461L48.6387 130.476L49.1698 130.778L49.3899 131.663L49.3755 131.668L49.0402 130.874L48.4406 130.765L48.4365 130.781L48.9327 130.958L49.1878 131.73L49.1749 131.737L48.7916 131.079L48.2879 131.037L48.2852 131.053L48.6802 131.182L48.978 131.806L48.9652 131.816L48.5507 131.313L48.0948 131.34L48.0934 131.356L48.4561 131.423L48.7862 131.909L48.7761 131.919L48.3447 131.563L47.8578 131.672L47.8603 131.689H48.2594L48.6257 132.034L48.618 132.047L48.1738 131.84L47.6649 131.918V131.935L48.1181 131.953L48.5028 132.196L48.4974 132.211L48.0741 132.066L47.3903 132.195L47.3914 132.211L48.0326 132.196L48.4237 132.376L48.4186 132.389L48.0092 132.293L46.9771 132.467V132.481L47.7865 132.543L47.7891 132.558L47.1403 132.674V132.688L47.5831 132.714V132.73L47.0768 132.862L47.2933 133.144L47.2802 133.157L46.788 132.739L45.5162 130.975L44.3596 130.382L43.4416 129.556L43.1631 128.795L43.1474 128.799L43.2485 129.658L43.694 130.373L43.6812 130.383L43.0335 129.846L42.7252 129.25L42.7086 129.254L42.8173 129.953L43.1333 130.527L43.1229 130.536L42.6075 130.116L42.3407 129.716L42.325 129.723L42.4494 130.264L42.7784 130.748L42.7681 130.759L42.2565 130.465L42.031 130.18L42.0155 130.188L42.1619 130.608L42.3989 130.906L42.391 130.917L42.1554 130.871L42.1489 130.887L42.6515 131.358L42.6461 131.373L42.2098 131.347L42.2059 131.369L42.8303 131.755L42.8276 131.769L42.5374 131.792L42.5363 131.808L43.259 132.084V132.097L42.9765 132.195L42.9792 132.212L44.7237 132.34V132.353L43.7522 132.361L43.7328 132.56L44.9503 132.541V132.556L44.0787 132.65L44.0398 132.887L45.2249 132.723L45.2287 132.738L44.3042 132.95L44.2898 133.225L45.5072 132.89L45.5124 132.906L44.5085 133.298L44.5139 133.548L45.7441 133.037L45.7493 133.05L44.7574 133.585L44.7908 133.841L45.9955 133.229L46.0031 133.241L45.0188 133.866L45.0747 134.083L46.2364 133.445L46.244 133.458L45.3428 134.06L45.4295 134.292L46.3878 133.719L46.397 133.732L45.7675 134.198L45.8775 134.419L46.3438 134.134L46.3516 134.144L46.1767 134.296L46.2636 134.471L46.3671 134.433L46.5135 134.381L46.5937 134.351C46.6067 134.347 46.6197 134.34 46.6325 134.335C46.6456 134.329 46.6586 134.322 46.6714 134.314C46.6961 134.298 46.7197 134.281 46.7413 134.262L46.7583 134.249L46.7725 134.234C46.7826 134.224 46.792 134.213 46.801 134.203C46.8113 134.193 46.8192 134.182 46.8268 134.171L46.8501 134.14C46.8581 134.13 46.8632 134.118 46.8684 134.108L46.8852 134.077C46.8935 134.059 46.9009 134.04 46.9072 134.021C46.9137 134.004 46.9176 133.989 46.9202 133.976L46.9279 133.946L46.9306 133.936L46.9461 133.938V133.949L46.9409 133.98C46.9395 133.993 46.9357 134.009 46.9292 134.028C46.9243 134.048 46.9182 134.069 46.911 134.088L46.8969 134.122L46.88 134.157C46.8749 134.17 46.8659 134.18 46.858 134.193L46.8333 134.23L46.8062 134.265L46.7906 134.281L46.7738 134.297C46.7513 134.32 46.7269 134.34 46.7013 134.359L46.6624 134.385L46.6197 134.408C46.5447 134.441 46.4696 134.474 46.3943 134.507L45.0538 135.008L44.1757 136.385L44.2276 136.42L45.2068 135.283L45.2196 135.291L44.6367 136.149L44.9943 136.093L45.533 135.297L45.5461 135.305L45.1535 136.076L45.4904 136.054L45.8542 135.309L45.8697 135.315L45.6224 136.047L45.9631 136.023L46.1756 135.323L46.1921 135.325L46.0731 136.012L46.4201 135.944L46.4953 135.314H46.5122V135.913L46.77 135.768L46.7311 135.315L46.7466 135.312L46.8371 135.727L46.9292 135.779L46.998 135.965L47.099 136L47.3034 136.166L47.3813 136.228L47.3799 136.232L47.3747 136.241L47.2414 136.183C46.7447 136.319 46.2504 136.463 45.7585 136.615H45.761L46.2622 136.903L46.5084 137.045L46.6223 137.11L46.6494 137.126L46.6624 137.132L46.669 137.136L46.6728 137.137V137.138L46.6768 137.141C46.6934 137.152 46.7089 137.164 46.7233 137.179C46.7493 137.204 46.7684 137.235 46.779 137.269C46.786 137.296 46.788 137.324 46.7842 137.351C46.7819 137.368 46.7774 137.384 46.7714 137.4L46.7648 137.417L46.7477 137.41L46.7531 137.394C46.757 137.379 46.759 137.364 46.7597 137.348C46.7615 137.325 46.7583 137.301 46.7505 137.278C46.7395 137.25 46.7217 137.225 46.6988 137.206C46.6854 137.194 46.6705 137.184 46.6546 137.176L46.6507 137.174L46.6431 137.171L46.6301 137.166L46.6016 137.153C46.5627 137.136 46.5239 137.118 46.481 137.101L46.2209 136.984L46.0538 136.912L45.6689 137.035C45.5048 137.087 45.5148 137.307 45.6703 137.364C45.9027 137.453 46.1363 137.538 46.371 137.62C46.4538 137.652 46.5425 137.666 46.6312 137.66C46.7197 137.654 46.8059 137.629 46.8838 137.587L47.499 137.307C47.9356 137.075 48.5507 136.58 48.5507 136.58L48.5612 136.591L48.0818 137.048C48.4069 136.901 48.7229 136.764 48.9327 136.68C49.1808 136.554 49.4193 136.41 49.6464 136.25L49.6567 136.26L49.3276 136.558C49.7007 136.487 50.3133 136.429 50.6448 136.429C51.0852 136.43 51.0944 136.051 50.8613 135.921ZM49.746 133.305C49.8042 133.362 49.8651 133.416 49.9248 133.473C49.9313 133.481 49.9374 133.489 49.943 133.498C49.9462 133.502 49.949 133.506 49.952 133.511L49.9585 133.524C49.963 133.533 49.967 133.542 49.9702 133.551C49.9726 133.56 49.9744 133.57 49.9753 133.58C49.9771 133.589 49.978 133.599 49.9778 133.609C49.978 133.614 49.978 133.619 49.9778 133.623C49.9778 133.629 49.9754 133.634 49.974 133.638C49.9718 133.647 49.9688 133.657 49.965 133.666C49.965 133.67 49.961 133.675 49.9585 133.679L49.952 133.691L49.939 133.683L49.9442 133.67C49.9464 133.666 49.948 133.662 49.9495 133.659C49.9518 133.65 49.9536 133.642 49.9547 133.634C49.9549 133.629 49.9549 133.625 49.9547 133.621V133.608C49.954 133.6 49.9527 133.591 49.9506 133.583C49.9484 133.575 49.9455 133.567 49.9416 133.56C49.9385 133.552 49.9345 133.545 49.93 133.538C49.928 133.534 49.9259 133.531 49.9235 133.528C49.921 133.524 49.9185 133.521 49.9158 133.517C49.9105 133.511 49.9049 133.506 49.8988 133.501C49.8341 133.452 49.7694 133.402 49.702 133.354L49.746 133.305ZM49.3926 133.147C49.3941 133.135 49.3987 133.123 49.4056 133.113C49.4067 133.111 49.4078 133.11 49.4092 133.108C49.411 133.105 49.4134 133.103 49.4157 133.1L49.4274 133.091C49.4324 133.088 49.4375 133.085 49.4429 133.082L49.4469 133.079L49.4651 133.077H49.4689L49.4793 133.097L49.4765 133.099C49.4727 133.103 49.4683 133.107 49.4638 133.111C49.4638 133.112 49.4631 133.113 49.4624 133.115L49.4586 133.121L49.4546 133.128C49.455 133.129 49.455 133.13 49.4546 133.131C49.4539 133.133 49.453 133.135 49.4521 133.136C49.4519 133.138 49.4519 133.139 49.4521 133.14V133.144C49.4519 133.146 49.4519 133.149 49.4521 133.151V133.153C49.4516 133.156 49.4516 133.158 49.4521 133.161C49.4525 133.164 49.4532 133.167 49.4546 133.17V133.173L49.4599 133.179C49.4602 133.181 49.4611 133.183 49.4624 133.185C49.4642 133.185 49.4656 133.187 49.4665 133.188C49.4687 133.19 49.471 133.192 49.4727 133.194H49.4755L49.4806 133.197C49.486 133.2 49.4916 133.201 49.4973 133.201C49.5031 133.201 49.5089 133.201 49.5143 133.199L49.522 133.196L49.5246 133.195L49.5298 133.191C49.5322 133.19 49.5343 133.188 49.5363 133.186C49.5374 133.184 49.5388 133.183 49.5401 133.182C49.5412 133.181 49.5422 133.18 49.5426 133.178L49.544 133.174C49.5453 133.173 49.5466 133.172 49.548 133.17L49.5504 133.163C49.5518 133.16 49.5527 133.156 49.5532 133.153V133.148C49.5527 133.144 49.5527 133.139 49.5532 133.135V133.131L49.5711 133.124L49.5738 133.128C49.5772 133.132 49.5803 133.138 49.5828 133.143L49.5855 133.148C49.5873 133.154 49.5887 133.159 49.5893 133.165V133.178C49.5891 133.182 49.5881 133.187 49.5869 133.191V133.195C49.5841 133.207 49.579 133.218 49.5711 133.229C49.5628 133.239 49.5522 133.248 49.5401 133.254L49.5374 133.258L49.5325 133.26L49.5298 133.261L49.5195 133.265C49.5123 133.267 49.5049 133.269 49.4973 133.269H49.4896C49.4755 133.268 49.4613 133.265 49.4483 133.26L49.4429 133.257C49.4375 133.254 49.4324 133.251 49.4274 133.247C49.4242 133.244 49.4211 133.242 49.4184 133.239C49.4152 133.236 49.4119 133.233 49.4092 133.23C49.404 133.224 49.3995 133.216 49.3964 133.209L49.3913 133.197V133.194L49.3899 133.19V133.186C49.3883 133.179 49.3876 133.173 49.3874 133.166C49.3881 133.16 49.3899 133.153 49.3926 133.147ZM49.3703 133.574C49.3741 133.562 49.3797 133.551 49.3874 133.541C49.3903 133.536 49.3939 133.532 49.3977 133.528L49.4027 133.524L49.4056 133.521H49.4081L49.4106 133.517C49.4211 133.511 49.4324 133.505 49.4442 133.502C49.4606 133.496 49.4779 133.495 49.4947 133.499C49.5001 133.5 49.5053 133.501 49.5103 133.503L49.5233 133.508C49.5269 133.511 49.5302 133.513 49.5336 133.516C49.5372 133.518 49.5408 133.521 49.544 133.524L49.5518 133.533L49.5583 133.541C49.5592 133.543 49.5601 133.545 49.5608 133.547L49.5662 133.56L49.5545 133.57C49.5504 133.568 49.5464 133.565 49.5426 133.562C49.541 133.562 49.5392 133.561 49.5374 133.56L49.531 133.558C49.5264 133.556 49.5217 133.554 49.5168 133.554C49.5125 133.552 49.5082 133.551 49.5037 133.551H49.4988C49.4957 133.55 49.4927 133.55 49.4896 133.551H49.4793C49.473 133.552 49.4669 133.555 49.4611 133.558C49.4552 133.559 49.4496 133.562 49.4442 133.565L49.4418 133.568L49.4364 133.573C49.4341 133.575 49.4319 133.577 49.4301 133.58C49.4258 133.584 49.4218 133.589 49.4184 133.594C49.417 133.596 49.417 133.6 49.4146 133.603C49.413 133.606 49.4121 133.609 49.4119 133.612C49.4096 133.617 49.4078 133.623 49.4067 133.629C49.406 133.634 49.406 133.64 49.4067 133.646L49.4067 133.652C49.407 133.654 49.4074 133.656 49.4081 133.659C49.4092 133.663 49.4101 133.667 49.4106 133.671L49.4016 133.678C49.3975 133.675 49.3935 133.672 49.3899 133.669L49.3847 133.662L49.3795 133.655L49.3743 133.646C49.3728 133.642 49.3715 133.638 49.3703 133.634L49.3665 133.621V133.607C49.3663 133.596 49.3677 133.585 49.3703 133.574ZM43.5905 129.885L43.6098 129.872L44.1265 130.559L44.975 130.966L44.9633 130.989L44.0515 130.638L43.5905 129.885ZM42.7616 130.458L42.7784 130.44L43.3313 130.961L44.453 131.323L44.4452 131.347L43.259 131.045L42.7616 130.458ZM42.4766 130.76L42.4921 130.745L43.0879 131.229L44.4139 131.591L44.4077 131.617L43.0297 131.32L42.4766 130.76ZM42.5828 131.478L42.5907 131.454L44.4259 131.832L44.4205 131.858L43.0607 131.651L42.5828 131.478ZM44.5422 132.116L43.5761 132.028L43.0879 131.885L43.0944 131.861L44.5449 132.091L44.5422 132.116ZM44.581 131.119L43.6033 130.794L43.1982 130.235L43.2148 130.221L43.6848 130.721L44.593 131.097L44.581 131.119ZM44.7055 131.47L44.6886 131.462L44.69 131.251L44.7107 131.248L44.734 131.375L45.1652 131.155L45.1757 131.173L44.7055 131.47ZM44.765 131.797L44.7677 131.586L44.7884 131.584L44.8117 131.711L45.3815 131.409L45.3907 131.426L44.7818 131.805L44.765 131.797ZM44.9465 132.098L44.9283 132.087L44.9321 131.876L44.9516 131.874L44.975 132.002L45.5771 131.676L45.5874 131.692L44.9465 132.098ZM45.1859 132.344L45.1679 132.336L45.1706 132.124L45.1912 132.123L45.2144 132.251L45.8037 131.942L45.8142 131.959L45.1859 132.344ZM45.4865 132.558L45.4711 132.549L45.4735 132.339L45.4942 132.335L45.5176 132.463L46.0356 132.192L46.0487 132.209L45.4865 132.558ZM45.8102 132.762L45.7947 132.754L45.7985 132.547L45.8167 132.543L45.8414 132.669L46.2712 132.449L46.2818 132.466L45.8102 132.762ZM46.1289 132.958L46.112 132.95L46.1158 132.748H46.1354L46.1584 132.865L46.4655 132.719L46.476 132.736L46.1289 132.958ZM46.3905 133.155L46.3763 133.145L46.384 132.977H46.4021L46.4215 133.065L46.6404 132.969L46.6494 132.985L46.3905 133.155ZM46.5886 133.367L46.573 133.357L46.5912 133.203L46.6108 133.205L46.6184 133.28L46.8852 133.163L46.8956 133.179L46.5886 133.367ZM46.7477 133.846L46.7336 133.836L46.7543 133.714H46.7725L46.7763 133.761L46.9032 133.709L46.9137 133.726L46.7477 133.846ZM46.6974 133.591L46.6818 133.581L46.7013 133.459H46.7206L46.7271 133.507L46.9148 133.416L46.9254 133.432L46.6974 133.591ZM45.9721 135.03L45.9618 135.021L45.9914 134.965L45.9346 134.941L45.937 134.926H46.0848L46.0887 134.939L45.9721 135.03ZM46.3864 135.03L46.3763 135.021L46.4059 134.965L46.3492 134.941L46.3516 134.926H46.4992L46.5043 134.939L46.3864 135.03ZM46.4954 137.439L46.3462 137.387L46.1975 137.338L45.8997 137.243L45.8969 137.242C45.8919 137.241 45.8872 137.238 45.8831 137.235C45.8789 137.231 45.8755 137.227 45.8731 137.222C45.8706 137.218 45.8692 137.213 45.8688 137.207C45.8686 137.202 45.8692 137.197 45.871 137.192C45.8728 137.185 45.8762 137.18 45.8807 137.175C45.8854 137.171 45.891 137.168 45.8969 137.166L46.2039 137.081L46.2093 137.095L46.0071 137.201L46.2144 137.293C46.2636 137.313 46.3101 137.337 46.3568 137.357L46.4992 137.425L46.4954 137.439ZM48.069 134.833L48.0559 134.826L48.0831 134.749L48.0054 134.729V134.717L48.1868 134.686L48.1934 134.698L48.069 134.833ZM47.753 134.382V134.37L48.0249 134.279L48.0339 134.289L47.8733 134.529L47.8603 134.524L47.885 134.394L47.753 134.382ZM47.6364 134.942V134.928L47.7813 134.902L47.7878 134.915L47.6881 135.023L47.6753 135.017L47.6959 134.957L47.6364 134.942ZM47.6481 133.942L47.6468 133.928L47.9225 133.848L47.9317 133.859L47.7619 134.092L47.7489 134.086L47.7775 133.958L47.6481 133.942ZM48.3629 134.495L48.3499 134.487L48.376 134.412L48.2982 134.393V134.377L48.4794 134.347L48.486 134.36L48.3629 134.495ZM48.5856 133.792L48.618 133.718L48.5417 133.692L48.5441 133.679L48.7267 133.662L48.7333 133.675L48.5974 133.801L48.5856 133.792ZM48.8253 132.985H48.9728L48.9769 132.998L48.8601 133.089L48.85 133.079L48.8796 133.024L48.8226 132.998L48.8253 132.985ZM48.7514 134.063L48.6503 134.17L48.6373 134.164L48.6582 134.104L48.5985 134.088V134.074L48.7435 134.05L48.7514 134.063ZM48.7425 133.257L48.5612 133.398L48.5507 133.389L48.5998 133.298L48.5053 133.257L48.508 133.243H48.7384L48.7425 133.257ZM48.4042 132.894H48.5884L48.592 132.907L48.4471 133.02L48.4365 133.011L48.4756 132.94L48.4004 132.909L48.4042 132.894ZM48.3849 133.94L48.2398 134.117L48.2271 134.11L48.2554 134.012L48.1543 133.993V133.976L48.3798 133.927L48.3849 133.94ZM48.3654 133.495L48.3719 133.507L48.1907 133.715L48.1776 133.709L48.2165 133.59L48.0934 133.564V133.548L48.3654 133.495ZM48.267 133.163L48.0858 133.302L48.0728 133.293L48.1246 133.203L48.0287 133.163L48.0326 133.148H48.2632L48.267 133.163ZM47.9201 132.894H48.0676L48.0716 132.907L47.9548 132.998L47.9446 132.989L47.9744 132.933L47.916 132.907L47.9201 132.894ZM47.8538 133.434L47.8603 133.447L47.6609 133.655L47.6481 133.647L47.6933 133.524L47.5663 133.49V133.476L47.8538 133.434ZM47.3979 134.639V134.623L47.6248 134.577L47.6312 134.59L47.4823 134.765L47.4693 134.758L47.499 134.658L47.3979 134.639ZM47.5017 133.09H47.731L47.7361 133.103L47.5549 133.244L47.5432 133.234L47.5921 133.143L47.4979 133.104L47.5017 133.09ZM47.4889 134.214L47.3501 134.398L47.337 134.391L47.3607 134.291L47.2596 134.278V134.261L47.4797 134.2L47.4889 134.214ZM47.4188 133.845L47.2762 134.013L47.2634 134.006L47.2906 133.911L47.1947 133.891V133.877L47.411 133.832L47.4188 133.845ZM47.1599 133.515L47.3411 133.485L47.3476 133.498L47.2232 133.633L47.2102 133.625L47.2362 133.55L47.1585 133.53L47.1599 133.515ZM46.6844 134.789L46.6728 134.78L46.704 134.724L46.6456 134.698L46.6494 134.686H46.7972L46.801 134.698L46.6844 134.789ZM46.805 135.114L46.7944 135.105L46.8244 135.051L46.7673 135.025L46.77 135.012H46.9176L46.9214 135.025L46.805 135.114ZM46.9732 134.57L46.9602 134.561L46.9993 134.489L46.9227 134.46L46.9254 134.445L47.1091 134.439L47.1145 134.452L46.9732 134.57ZM47.0873 134.879L47.0756 134.869L47.1145 134.798L47.0406 134.767L47.0445 134.753H47.2284L47.2322 134.766L47.0873 134.879ZM47.2659 135.143L47.2544 135.134L47.2854 135.078L47.2272 135.052L47.2308 135.039H47.3786L47.3824 135.052L47.2659 135.143ZM46.6339 136.67L46.5834 136.686L46.5445 136.698L46.5084 136.709L46.4565 136.724L46.4489 136.702L46.4527 136.699L46.498 136.681L46.5524 136.659L46.5652 136.654L46.6209 136.632C46.6721 136.612 46.7235 136.593 46.775 136.574L46.7944 136.567L46.8333 136.553C46.8852 136.535 46.9395 136.515 46.9952 136.496C47.0629 136.474 47.1307 136.453 47.1985 136.431L47.2259 136.422L47.2906 136.403L47.3761 136.381L47.4797 136.355L47.503 136.348L47.5522 136.338H47.556L47.5639 136.36L47.5587 136.361L47.512 136.38L47.4797 136.391L47.3889 136.422L47.3061 136.45L47.2867 136.456L47.2128 136.482C47.1482 136.504 47.0808 136.526 47.0121 136.547L46.9602 136.565L46.8113 136.614L46.7401 136.636L46.6339 136.67ZM48.2141 136.378L48.1634 136.395L48.0429 136.438L48.0157 136.447L47.929 136.477C47.8875 136.49 47.8448 136.506 47.8035 136.521L47.5275 136.618L47.3501 136.683L47.2531 136.718C47.2232 136.731 47.1946 136.74 47.1661 136.75L47.1273 136.763L47.0471 136.793L47.0134 136.806C46.973 136.82 46.9324 136.835 46.8918 136.848L46.8437 136.866L46.779 136.888L46.7738 136.89L46.7648 136.868L46.77 136.865L46.8333 136.839L46.88 136.819L46.9993 136.768L47.0224 136.759L47.1104 136.723L47.1507 136.707L47.2362 136.674L47.3332 136.636C47.3914 136.615 47.4498 136.592 47.5106 136.571L47.7878 136.476L47.8526 136.453L47.9147 136.434L48.0314 136.399L48.1518 136.364L48.2035 136.348L48.2748 136.328L48.2825 136.351L48.2141 136.378ZM47.5794 136.093L47.5805 136.078C47.5857 136.077 47.5911 136.076 47.5962 136.075C47.6018 136.075 47.6074 136.075 47.6131 136.075C47.6202 136.074 47.6276 136.074 47.635 136.075H47.6402L47.6481 136.078C47.6524 136.079 47.6568 136.08 47.6609 136.082C47.6705 136.084 47.6802 136.088 47.6894 136.092C47.6991 136.097 47.7081 136.103 47.7166 136.11C47.726 136.117 47.7348 136.125 47.7426 136.133L47.7489 136.142C47.7538 136.148 47.7584 136.154 47.7619 136.161C47.7671 136.17 47.7714 136.18 47.775 136.19C47.7786 136.2 47.7811 136.21 47.7826 136.22L47.7853 136.233V136.246C47.7853 136.254 47.7847 136.262 47.7826 136.27C47.7826 136.275 47.7817 136.281 47.7801 136.286L47.775 136.299H47.7592L47.7554 136.286C47.7541 136.281 47.7525 136.277 47.7502 136.272C47.7484 136.266 47.7462 136.26 47.744 136.254C47.7413 136.247 47.7384 136.241 47.7348 136.234C47.7314 136.227 47.7274 136.22 47.7231 136.214L47.7103 136.194L47.6945 136.175L47.6817 136.162C47.6807 136.16 47.6793 136.158 47.6777 136.157L47.6596 136.14C47.6544 136.135 47.6468 136.129 47.6402 136.127C47.6344 136.123 47.6284 136.119 47.622 136.115L47.6052 136.106L47.5921 136.1L47.5794 136.093ZM48.0287 135.977C48.0305 135.977 48.0323 135.978 48.0339 135.978C48.0438 135.981 48.0532 135.985 48.0624 135.99C48.0721 135.995 48.0813 136.001 48.0896 136.008C48.0988 136.014 48.1076 136.022 48.1154 136.03C48.1231 136.038 48.1296 136.048 48.135 136.058C48.1399 136.067 48.1444 136.077 48.148 136.087C48.1514 136.097 48.1538 136.106 48.1556 136.117L48.1583 136.129V136.142C48.1586 136.15 48.1581 136.158 48.157 136.166C48.1565 136.172 48.1552 136.177 48.1532 136.183L48.148 136.196H48.1336C48.1316 136.191 48.13 136.187 48.1285 136.183C48.1285 136.178 48.126 136.172 48.1233 136.167L48.1167 136.15C48.1141 136.144 48.1111 136.137 48.1078 136.131C48.1044 136.124 48.1004 136.117 48.0961 136.11L48.0831 136.091L48.069 136.07C48.0638 136.063 48.0572 136.057 48.0508 136.052L48.0326 136.035C48.0267 136.03 48.0209 136.026 48.0143 136.022C48.0035 136.014 47.9917 136.007 47.9796 136.002C47.9753 135.999 47.971 135.996 47.9666 135.994C47.965 135.993 47.9632 135.993 47.9614 135.992L47.8502 136.02L47.8345 136.023L47.8473 136.027C47.8572 136.031 47.8666 136.036 47.8758 136.04C47.885 136.045 47.8938 136.051 47.9019 136.057C47.9113 136.064 47.9198 136.072 47.9277 136.08C47.9349 136.089 47.9414 136.098 47.9472 136.108C47.9528 136.117 47.9576 136.127 47.9614 136.137C47.9645 136.147 47.9672 136.157 47.9692 136.167L47.9719 136.18V136.193C47.9719 136.2 47.9715 136.208 47.9706 136.215C47.9697 136.221 47.9683 136.226 47.9666 136.232C47.9652 136.236 47.9636 136.241 47.9614 136.245H47.9459L47.9418 136.232C47.9405 136.227 47.9389 136.222 47.9369 136.218L47.9304 136.201L47.9212 136.18L47.9111 136.161L47.8981 136.14C47.894 136.132 47.8864 136.127 47.8823 136.12C47.8767 136.114 47.8706 136.108 47.8644 136.102L47.8462 136.086C47.841 136.079 47.8332 136.076 47.828 136.073L47.81 136.061L47.7929 136.052L47.7801 136.045L47.7685 136.04L47.5691 135.81L47.4705 135.258L47.49 135.249L47.8709 135.713L48.0027 135.71L48.3423 135.899L48.0287 135.977ZM48.6321 135.833L48.6335 135.82L48.6493 135.819C48.6549 135.818 48.6602 135.818 48.6658 135.819C48.6733 135.818 48.6807 135.818 48.6881 135.819H48.6892L48.7009 135.822L48.7139 135.826C48.7339 135.832 48.7523 135.843 48.7683 135.857C48.7752 135.862 48.7818 135.868 48.7876 135.874L48.7928 135.88C48.8002 135.888 48.8066 135.897 48.8123 135.907C48.8172 135.916 48.8217 135.926 48.8253 135.937C48.8282 135.946 48.8305 135.956 48.8316 135.967L48.8329 135.979V135.992C48.8336 136 48.8331 136.008 48.8316 136.016C48.8311 136.021 48.8298 136.027 48.8278 136.033L48.8213 136.045H48.8084L48.8033 136.033C48.802 136.027 48.8002 136.022 48.7982 136.017L48.7916 136L48.7838 135.981L48.7721 135.96L48.7591 135.939C48.7548 135.932 48.7501 135.925 48.7449 135.919L48.7281 135.9C48.7253 135.897 48.7222 135.895 48.7191 135.892C48.716 135.89 48.713 135.887 48.7101 135.883L48.6919 135.871L48.6737 135.858L48.6569 135.848L48.6439 135.842L48.6311 135.835L48.6321 135.833ZM49.1062 136.139L49.0829 136.147L49.0649 136.152L49.0207 136.164C48.9587 136.182 48.896 136.197 48.8329 136.21L48.815 136.214C48.7559 136.228 48.6968 136.241 48.6373 136.253L48.5908 136.259L48.5726 136.262L48.5482 136.266H48.5441L48.5389 136.242L48.543 136.241L48.5662 136.233L48.5792 136.228L48.6283 136.213C48.6854 136.194 48.7555 136.175 48.8174 136.161L48.921 136.14L49.0117 136.124L49.0584 136.119L49.0766 136.117L49.1024 136.114H49.1062L49.1103 136.137L49.1062 136.139ZM49.3266 135.92H49.3225L49.3174 135.896H49.3212L49.3524 135.888C49.3791 135.881 49.4058 135.874 49.4328 135.867C49.5138 135.848 49.5956 135.831 49.6773 135.815H49.6801L49.8096 135.792L49.9169 135.776H49.9248L49.9868 135.768L50.0063 135.766L50.0376 135.763H50.0427L50.0466 135.786H50.0414L50.0115 135.795L49.9895 135.801L49.9313 135.813L49.8691 135.826L49.8173 135.838L49.7072 135.86L49.6865 135.864C49.5846 135.883 49.4822 135.9 49.3795 135.913L49.3576 135.916L49.3266 135.921V135.92ZM50.3367 135.95L50.2951 135.956L50.2239 135.969C50.171 135.978 50.1179 135.987 50.0648 135.995L49.974 136.008L49.9558 136.01L49.8821 136.022L49.8107 136.031L49.6993 136.048L49.636 136.057L49.6154 136.06L49.5401 136.07L49.4624 136.08L49.4274 136.084L49.3795 136.089L49.3755 136.066L49.4222 136.056L49.4546 136.048L49.5336 136.033L49.5751 136.023L49.6426 136.01L49.6917 136.002C49.7189 135.996 49.7498 135.99 49.7825 135.986L49.8743 135.972L49.9675 135.959L50.0582 135.946L50.1644 135.935L50.2175 135.929L50.3185 135.921L50.3315 135.92L50.3756 135.917H50.3794L50.3818 135.941L50.3367 135.95Z" fill="white"/>
<path d="M135.592 134.223L136.607 131.072H136.628L137.632 134.223H135.592ZM137.907 135.079L138.616 137.289H139.842L137.358 129.888H135.951L133.477 137.289H134.608L135.317 135.079H137.907Z" fill="#EE2E3E"/>
<path d="M142.486 136.316H141.397V130.86L142.486 130.86C142.93 130.86 143.325 130.927 143.671 131.061C144.016 131.195 144.307 131.381 144.543 131.621C144.779 131.861 144.961 132.148 145.087 132.483C145.214 132.818 145.278 133.186 145.278 133.588C145.278 133.99 145.214 134.358 145.087 134.693C144.961 135.028 144.779 135.315 144.543 135.555C144.307 135.794 144.016 135.981 143.671 136.115C143.325 136.249 142.93 136.316 142.486 136.316ZM140.276 129.887L140.276 137.289H142.518C143.159 137.289 143.727 137.194 144.221 137.003C144.714 136.813 145.126 136.552 145.458 136.221C145.789 135.889 146.041 135.498 146.214 135.047C146.386 134.596 146.473 134.109 146.473 133.588C146.473 133.066 146.386 132.58 146.214 132.129C146.041 131.678 145.787 131.286 145.452 130.955C145.118 130.624 144.705 130.363 144.215 130.172C143.725 129.982 143.159 129.887 142.518 129.887H140.276Z" fill="#EE2E3E"/>
<path d="M148.725 137.289H150.121L152.584 129.887H151.453L149.476 136.084H149.454L147.488 129.887H146.261L148.725 137.289Z" fill="#EE2E3E"/>
<path d="M154.149 129.887H153.028V137.289H154.149V129.887Z" fill="#EE2E3E"/>
<path d="M157.089 137.448C157.484 137.448 157.84 137.388 158.157 137.268C158.474 137.148 158.746 136.988 158.971 136.787C159.197 136.586 159.369 136.354 159.489 136.089C159.609 135.825 159.669 135.545 159.669 135.249C159.669 134.748 159.526 134.345 159.241 134.038C158.955 133.731 158.562 133.465 158.062 133.24L157.047 132.796C156.687 132.633 156.441 132.468 156.307 132.299C156.173 132.129 156.106 131.921 156.106 131.675C156.106 131.548 156.132 131.425 156.185 131.305C156.238 131.185 156.315 131.075 156.418 130.977C156.52 130.878 156.65 130.799 156.809 130.739C156.967 130.679 157.152 130.649 157.364 130.649C157.611 130.649 157.878 130.702 158.168 130.808C158.457 130.913 158.703 131.04 158.908 131.188L159.532 130.416C159.419 130.332 159.285 130.249 159.13 130.168C158.975 130.087 158.805 130.013 158.622 129.946C158.439 129.879 158.243 129.826 158.035 129.787C157.827 129.749 157.618 129.729 157.406 129.729C156.983 129.729 156.619 129.791 156.312 129.914C156.005 130.038 155.752 130.196 155.551 130.39C155.35 130.584 155.202 130.802 155.107 131.046C155.011 131.289 154.964 131.53 154.964 131.77C154.964 132.2 155.076 132.575 155.302 132.896C155.528 133.217 155.901 133.49 156.423 133.715L157.47 134.17C157.829 134.332 158.092 134.503 158.258 134.683C158.423 134.863 158.506 135.09 158.506 135.365C158.506 135.513 158.474 135.656 158.411 135.793C158.347 135.931 158.256 136.053 158.136 136.158C158.016 136.264 157.868 136.349 157.692 136.412C157.516 136.475 157.311 136.507 157.079 136.507C156.761 136.507 156.448 136.446 156.137 136.322C155.827 136.199 155.549 136.035 155.302 135.83L154.668 136.655C154.907 136.852 155.223 137.034 155.614 137.2C156.005 137.365 156.497 137.448 157.089 137.448Z" fill="#EE2E3E"/>
<path d="M163.454 136.433C163.088 136.433 162.755 136.357 162.455 136.205C162.155 136.054 161.898 135.848 161.683 135.587C161.468 135.326 161.302 135.024 161.186 134.683C161.07 134.341 161.012 133.976 161.012 133.588C161.012 133.207 161.07 132.844 161.186 132.499C161.302 132.154 161.468 131.851 161.683 131.59C161.898 131.329 162.155 131.123 162.455 130.971C162.755 130.819 163.088 130.744 163.454 130.744C163.821 130.744 164.154 130.819 164.453 130.971C164.753 131.123 165.01 131.329 165.225 131.59C165.44 131.851 165.608 132.154 165.728 132.499C165.847 132.844 165.907 133.207 165.907 133.588C165.907 133.976 165.847 134.341 165.728 134.683C165.608 135.024 165.44 135.326 165.225 135.587C165.01 135.848 164.753 136.054 164.453 136.205C164.154 136.357 163.821 136.433 163.454 136.433ZM163.454 137.448C163.934 137.448 164.393 137.358 164.834 137.178C165.274 136.998 165.661 136.741 165.992 136.406C166.323 136.071 166.588 135.666 166.785 135.19C166.982 134.714 167.081 134.18 167.081 133.588C167.081 132.996 166.982 132.462 166.785 131.986C166.588 131.51 166.323 131.105 165.992 130.77C165.661 130.435 165.274 130.178 164.834 129.998C164.393 129.819 163.934 129.729 163.454 129.729C162.975 129.729 162.516 129.819 162.079 129.998C161.642 130.178 161.256 130.435 160.922 130.77C160.587 131.105 160.321 131.51 160.123 131.986C159.926 132.462 159.827 132.996 159.827 133.588C159.827 134.18 159.926 134.714 160.123 135.19C160.321 135.666 160.587 136.071 160.922 136.406C161.256 136.741 161.642 136.998 162.079 137.178C162.516 137.358 162.975 137.448 163.454 137.448Z" fill="#EE2E3E"/>
<path d="M168.889 133.366V130.818L170.18 130.818C170.609 130.818 170.948 130.932 171.196 131.162C171.44 131.391 171.564 131.703 171.564 132.097C171.564 132.492 171.44 132.802 171.196 133.028C170.948 133.253 170.609 133.366 170.18 133.366H168.889ZM168.889 134.286H170.18L172.294 137.289H173.628V137.268L171.31 134.043C171.557 133.965 171.77 133.856 171.95 133.715C172.13 133.574 172.278 133.414 172.395 133.234C172.512 133.054 172.599 132.862 172.66 132.658C172.718 132.453 172.75 132.249 172.75 132.044C172.75 131.748 172.698 131.47 172.595 131.209C172.494 130.948 172.341 130.721 172.141 130.527C171.941 130.333 171.692 130.178 171.395 130.062C171.099 129.945 170.753 129.887 170.36 129.887H167.769V137.289H168.889V134.286Z" fill="#EE2E3E"/>
<path fill-rule="evenodd" clip-rule="evenodd" d="M9.43225 84.7384C9.43225 78.7849 14.2586 73.9588 20.2118 73.9588H44.0043V77.552H20.2118C16.2429 77.552 13.0254 80.7694 13.0254 84.7384V139.496C13.0254 143.465 16.2429 146.683 20.2118 146.683H194.142C198.111 146.683 201.329 143.465 201.329 139.496V84.7384C201.329 80.7694 198.111 77.552 194.142 77.552H170.349V73.9588H194.142C200.096 73.9588 204.922 78.7849 204.922 84.7384V139.496C204.922 145.45 200.096 150.276 194.142 150.276H20.2118C14.2586 150.276 9.43225 145.45 9.43225 139.496V84.7384Z" fill="#EB1F31"/>
<path d="M51.9546 85.5333V102.609H59.1751C60.1997 102.609 61.1104 102.487 61.9072 102.243C62.7041 101.999 63.3709 101.658 63.9075 101.218C64.4442 100.779 64.8507 100.259 65.1272 99.6573C65.4037 99.0555 65.5419 98.405 65.5419 97.7058C65.5419 97.1366 65.4484 96.6243 65.2614 96.169C65.0744 95.7136 64.8223 95.3152 64.5052 94.9737C64.1881 94.6321 63.8221 94.3476 63.4075 94.1199C62.9928 93.8922 62.5659 93.7296 62.1268 93.632V93.5832C62.452 93.5019 62.7773 93.3555 63.1025 93.1441C63.4278 92.9327 63.7164 92.6725 63.9685 92.3635C64.2206 92.0545 64.4279 91.6968 64.5906 91.2902C64.7532 90.8837 64.8345 90.4446 64.8345 89.9729C64.8345 89.4038 64.7206 88.8508 64.493 88.3142C64.2653 87.7775 63.9116 87.3018 63.4318 86.8871C62.9521 86.4724 62.3463 86.1431 61.6145 85.8992C60.8827 85.6553 60.0045 85.5333 58.98 85.5333H51.9546ZM58.3945 92.3635H56.2479V88.8752H58.3945C59.0776 88.8752 59.602 89.0379 59.9679 89.3631C60.3338 89.6884 60.5168 90.1112 60.5168 90.6316C60.5168 91.1195 60.3338 91.5301 59.9679 91.8635C59.602 92.1968 59.0776 92.3635 58.3945 92.3635ZM58.7848 99.267H56.2479V95.4371H58.7848C59.2239 95.4371 59.5939 95.4981 59.8948 95.6201C60.1956 95.7421 60.4396 95.8966 60.6266 96.0836C60.8136 96.2706 60.9477 96.4779 61.0291 96.7056C61.1104 96.9333 61.151 97.161 61.151 97.3886C61.151 97.844 60.9721 98.2709 60.6144 98.6693C60.2566 99.0677 59.6467 99.267 58.7848 99.267Z" fill="black"/>
<path d="M67.8348 85.5333V102.609H80.5196V98.9011H72.1281V95.6811H77.446V92.2172H72.1281V89.2411H80.2512V85.5333H67.8348Z" fill="black"/>
<path d="M88.3256 102.975C89.3827 102.975 90.3219 102.824 91.1431 102.524C91.9644 102.223 92.6637 101.82 93.241 101.316C93.8183 100.812 94.2574 100.226 94.5582 99.5597C94.8591 98.8929 95.0095 98.1937 95.0095 97.4618C95.0095 96.7626 94.8997 96.1527 94.6802 95.6323C94.4607 95.1119 94.1679 94.6566 93.802 94.2663C93.4361 93.876 93.0133 93.5466 92.5335 93.2783C92.0538 93.01 91.5537 92.7782 91.0333 92.5831L88.5452 91.7049C87.8947 91.4772 87.4597 91.2292 87.2401 90.9609C87.0206 90.6926 86.9108 90.3877 86.9108 90.0461C86.9108 89.7046 87.0734 89.3916 87.3987 89.107C87.7239 88.8224 88.2037 88.6801 88.8379 88.6801C89.1632 88.6801 89.5047 88.7167 89.8624 88.7899C90.2202 88.863 90.5617 88.9606 90.887 89.0826C91.2122 89.2046 91.5212 89.3387 91.8139 89.4851C92.1067 89.6314 92.3506 89.7778 92.5458 89.9242L94.8388 86.9969C94.481 86.7205 94.0744 86.4725 93.6191 86.2529C93.1637 86.0334 92.6799 85.8423 92.1676 85.6797C91.6554 85.517 91.1269 85.391 90.5821 85.3016C90.0373 85.2121 89.5047 85.1674 88.9843 85.1674C87.8296 85.1674 86.8417 85.33 86.0204 85.6553C85.1992 85.9805 84.5284 86.3912 84.008 86.8872C83.4875 87.3832 83.1054 87.9402 82.8614 88.5581C82.6175 89.1761 82.4955 89.7778 82.4955 90.3633C82.4955 91.5829 82.8167 92.6034 83.4591 93.4247C84.1015 94.2459 85.0975 94.8924 86.4473 95.364L88.6916 96.169C89.3746 96.4129 89.838 96.669 90.082 96.9374C90.3259 97.2057 90.4479 97.5269 90.4479 97.9009C90.4479 98.275 90.2649 98.6205 89.899 98.9377C89.5331 99.2548 89.0005 99.4133 88.3012 99.4133C87.667 99.4133 86.9799 99.2832 86.24 99.023C85.5 98.7628 84.7642 98.3237 84.0323 97.7058L81.6906 100.828C82.4061 101.397 83.3127 101.897 84.4105 102.328C85.5082 102.759 86.8132 102.975 88.3256 102.975Z" fill="black"/>
<path d="M101.206 89.2411V102.609H105.499V89.2411H110.67V85.5333H96.0585V89.2411H101.206Z" fill="black"/>
<path d="M120.037 102.609H125.526L130.771 85.5332H126.404L122.965 97.7301H122.916L119.574 85.5332H114.793L120.037 102.609Z" fill="black"/>
<path d="M138.772 85.5333H132.503V102.609H136.796V97.413H138.772C139.78 97.413 140.687 97.2667 141.492 96.9739C142.297 96.6812 142.976 96.2706 143.529 95.7421C144.082 95.2135 144.505 94.5874 144.797 93.8637C145.09 93.1401 145.236 92.3473 145.236 91.4854C145.236 90.6234 145.09 89.8266 144.797 89.0948C144.505 88.363 144.082 87.7328 143.529 87.2043C142.976 86.6757 142.297 86.2651 141.492 85.9724C140.687 85.6796 139.78 85.5333 138.772 85.5333ZM136.796 93.9491V88.9972H138.235C139.114 88.9972 139.772 89.2371 140.211 89.7168C140.65 90.1966 140.87 90.7861 140.87 91.4854C140.87 92.1846 140.65 92.7701 140.211 93.2417C139.772 93.7133 139.114 93.9491 138.235 93.9491H136.796Z" fill="black"/>
<path d="M151.53 102.609V92.1683H151.579L158.092 102.609H162.263V85.5332H158.165L158.116 94.9736L152.384 85.5332H147.432V102.609H151.53Z" fill="black"/>
<path d="M92.131 125.051V121.563H85.4715L87.8621 119.538C89.1631 118.448 90.1429 117.375 90.8015 116.318C91.4602 115.261 91.7895 114.139 91.7895 112.952C91.7895 112.187 91.635 111.48 91.326 110.83C91.017 110.179 90.5942 109.614 90.0575 109.134C89.5208 108.654 88.8826 108.28 88.1426 108.012C87.4027 107.744 86.5936 107.61 85.7154 107.61C84.9674 107.61 84.2721 107.699 83.6298 107.878C82.9874 108.057 82.4101 108.301 81.8978 108.61C81.3855 108.919 80.9302 109.281 80.5318 109.695C80.1333 110.11 79.804 110.553 79.5438 111.025L82.837 112.952C83.1134 112.48 83.4671 112.106 83.8981 111.83C84.3291 111.553 84.8291 111.415 85.3983 111.415C85.9675 111.415 86.4594 111.602 86.8741 111.976C87.2888 112.35 87.4962 112.854 87.4962 113.488C87.4962 114.09 87.2848 114.672 86.8619 115.233C86.4391 115.794 85.813 116.464 84.9836 117.245L80.0805 121.807V125.051H92.131Z" fill="black"/>
<path d="M100.352 125.417C101.555 125.417 102.572 125.153 103.401 124.624C104.23 124.096 104.905 123.413 105.426 122.575C105.946 121.738 106.32 120.786 106.548 119.721C106.775 118.656 106.889 117.587 106.889 116.513C106.889 115.44 106.775 114.371 106.548 113.306C106.32 112.24 105.946 111.285 105.426 110.439C104.905 109.594 104.23 108.911 103.401 108.39C102.572 107.87 101.555 107.61 100.352 107.61C99.1483 107.61 98.1319 107.87 97.3025 108.39C96.4732 108.911 95.8023 109.594 95.2901 110.439C94.7778 111.285 94.4078 112.24 94.1801 113.306C93.9525 114.371 93.8386 115.44 93.8386 116.513C93.8386 117.587 93.9525 118.656 94.1801 119.721C94.4078 120.786 94.7778 121.738 95.2901 122.575C95.8023 123.413 96.4732 124.096 97.3025 124.624C98.1319 125.153 99.1483 125.417 100.352 125.417ZM100.352 121.758C99.7175 121.758 99.2093 121.347 98.8271 120.526C98.445 119.705 98.2539 118.367 98.2539 116.513C98.2539 114.659 98.445 113.326 98.8271 112.513C99.2093 111.7 99.7175 111.293 100.352 111.293C100.986 111.293 101.498 111.7 101.889 112.513C102.279 113.326 102.474 114.659 102.474 116.513C102.474 118.367 102.279 119.705 101.889 120.526C101.498 121.347 100.986 121.758 100.352 121.758Z" fill="black"/>
<path d="M120.599 125.051V121.563H113.939L116.33 119.538C117.631 118.448 118.611 117.375 119.269 116.318C119.928 115.261 120.257 114.139 120.257 112.952C120.257 112.187 120.103 111.48 119.794 110.83C119.485 110.179 119.062 109.614 118.525 109.134C117.989 108.654 117.35 108.28 116.61 108.012C115.87 107.744 115.061 107.61 114.183 107.61C113.435 107.61 112.74 107.699 112.097 107.878C111.455 108.057 110.878 108.301 110.365 108.61C109.853 108.919 109.398 109.281 108.999 109.695C108.601 110.11 108.272 110.553 108.011 111.025L111.305 112.952C111.581 112.48 111.935 112.106 112.366 111.83C112.797 111.553 113.297 111.415 113.866 111.415C114.435 111.415 114.927 111.602 115.342 111.976C115.756 112.35 115.964 112.854 115.964 113.488C115.964 114.09 115.752 114.672 115.33 115.233C114.907 115.794 114.281 116.464 113.451 117.245L108.548 121.807V125.051H120.599Z" fill="black"/>
<path d="M127.795 125.417C128.836 125.417 129.758 125.275 130.563 124.99C131.368 124.706 132.047 124.319 132.6 123.831C133.153 123.344 133.572 122.783 133.857 122.148C134.141 121.514 134.283 120.847 134.283 120.148C134.283 119.205 133.999 118.384 133.43 117.684C132.86 116.985 132.161 116.481 131.332 116.172V116.123C132.112 115.798 132.73 115.306 133.186 114.647C133.641 113.989 133.869 113.188 133.869 112.244C133.869 111.675 133.747 111.114 133.503 110.561C133.259 110.008 132.897 109.512 132.417 109.073C131.938 108.634 131.344 108.28 130.637 108.012C129.929 107.744 129.112 107.61 128.185 107.61C127.404 107.61 126.681 107.703 126.014 107.89C125.347 108.077 124.75 108.317 124.221 108.61C123.693 108.902 123.229 109.232 122.831 109.598C122.432 109.964 122.103 110.325 121.843 110.683L124.867 112.805C125.144 112.431 125.522 112.07 126.002 111.72C126.482 111.37 127.063 111.195 127.746 111.195C128.364 111.195 128.844 111.366 129.185 111.708C129.527 112.049 129.697 112.423 129.697 112.83C129.697 113.106 129.636 113.375 129.514 113.635C129.393 113.895 129.197 114.119 128.929 114.306C128.661 114.493 128.327 114.635 127.929 114.733C127.53 114.83 127.047 114.863 126.477 114.83V117.904C127.502 117.871 128.335 118.03 128.978 118.379C129.62 118.729 129.941 119.262 129.941 119.977C129.941 120.498 129.73 120.937 129.307 121.294C128.884 121.652 128.356 121.831 127.722 121.831C126.925 121.831 126.221 121.669 125.611 121.343C125.002 121.018 124.461 120.628 123.989 120.172L121.55 123.051C122.282 123.783 123.16 124.36 124.184 124.783C125.209 125.206 126.412 125.417 127.795 125.417Z" fill="black"/>
<path d="M53.3268 71.0643V80.4964H59.0804V79.5802H54.3508V76.0498H57.5039V75.1336H54.3508V71.9805H58.9861V71.0643L53.3268 71.0643Z" fill="#030404"/>
<path d="M60.9803 71.0643V80.4964H63.5674C64.3894 80.4964 65.117 80.3886 65.7503 80.1596C66.3837 79.9305 66.9091 79.6071 67.3404 79.1894C67.7715 78.7717 68.0949 78.2732 68.3105 77.7072C68.5261 77.1413 68.6338 76.5215 68.6338 75.8478C68.6338 75.174 68.5261 74.5542 68.3105 73.9882C68.0949 73.4224 67.7715 72.9238 67.3404 72.5061C66.9091 72.0884 66.3837 71.765 65.7503 71.5359C65.117 71.3068 64.3894 71.199 63.5674 71.199L60.9803 71.0643ZM63.6214 79.7283H62.0044V72.1019H63.6214C64.2277 72.1019 64.7667 72.1827 65.2518 72.3578C65.7369 72.533 66.1411 72.7756 66.4779 73.099C66.8148 73.4224 67.0708 73.8131 67.246 74.2846C67.4212 74.7563 67.502 75.2818 67.502 75.8612C67.502 76.4406 67.4212 76.9661 67.246 77.4378C67.0708 77.9093 66.8148 78.3001 66.4779 78.6234C66.1411 78.9469 65.7369 79.1894 65.2518 79.3646C64.7667 79.5398 64.2277 79.6206 63.6214 79.6206V79.7283Z" fill="#030404"/>
<path d="M71.7464 71.0643H70.7223V80.4964H71.7464V71.0643Z" fill="#030404"/>
<path d="M76.3817 71.9806V80.4964H77.4057V71.9805H80.3162V71.0643H73.4712V71.9805L76.3817 71.9806Z" fill="#030404"/>
<path d="M85.5443 80.6985C86.1237 80.6985 86.6896 80.5908 87.2421 80.3617C87.7946 80.1327 88.2796 79.8093 88.6974 79.3915C89.115 78.9738 89.452 78.4618 89.7079 77.8555C89.964 77.2491 90.0852 76.5754 90.0852 75.8208C90.0852 75.0663 89.964 74.3925 89.7079 73.7862C89.452 73.1798 89.115 72.6678 88.6974 72.2501C88.2796 71.8324 87.7946 71.509 87.2421 71.2933C86.6896 71.0778 86.1237 70.97 85.5443 70.97C84.9649 70.97 84.399 71.0778 83.8466 71.2933C83.2941 71.509 82.809 71.8324 82.3913 72.2501C81.9736 72.6678 81.6368 73.1798 81.3807 73.7862C81.1247 74.3925 81.0034 75.0663 81.0034 75.8208C81.0034 76.5754 81.1247 77.2491 81.3807 77.8555C81.6368 78.4618 81.9736 78.9738 82.3913 79.3915C82.809 79.8093 83.2941 80.1327 83.8466 80.3617C84.399 80.5908 84.9649 80.6985 85.5443 80.6985ZM85.5443 79.7823C85.0323 79.7823 84.5607 79.688 84.1295 79.4859C83.6983 79.2837 83.3345 79.0007 83.0246 78.637C82.7147 78.2732 82.4722 77.8555 82.297 77.3704C82.1218 76.8853 82.041 76.3732 82.041 75.8208C82.041 75.2683 82.1218 74.7563 82.297 74.2712C82.4722 73.7862 82.7147 73.3685 83.0246 73.0181C83.3345 72.6678 83.6983 72.3848 84.1295 72.1827C84.5607 71.9806 85.0323 71.8862 85.5443 71.8862C86.0564 71.8862 86.5279 71.9806 86.9591 72.1827C87.3903 72.3848 87.7542 72.6678 88.064 73.0181C88.374 73.3685 88.6165 73.7862 88.7917 74.2712C88.9669 74.7563 89.0477 75.2684 89.0477 75.8208C89.0477 76.3732 88.9669 76.8853 88.7917 77.3704C88.6165 77.8555 88.374 78.2732 88.064 78.637C87.7542 79.0007 87.3903 79.2837 86.9591 79.4859C86.5279 79.688 86.0564 79.7823 85.5443 79.7823Z" fill="#030404"/>
<path d="M93.2107 76.4001H95.0837L98.0615 80.4964H99.2877V80.4694L96.1617 76.2115C96.485 76.1172 96.768 75.9824 96.9971 75.8073C97.2261 75.632 97.4147 75.43 97.563 75.2009C97.7112 74.9718 97.819 74.7428 97.8864 74.5003C97.9537 74.2577 97.9807 74.0152 97.9807 73.7726C97.9807 73.4223 97.9268 73.0989 97.819 72.789C97.7112 72.4791 97.536 72.2096 97.307 71.967C97.0779 71.7245 96.7815 71.5359 96.4176 71.4011C96.0539 71.2663 95.6361 71.199 95.151 71.199H92.1732V80.6311H93.1973L93.2107 76.4001ZM93.1973 75.6725V72.0613H95.0163C95.5553 72.0613 96.0134 72.2096 96.3773 72.506C96.741 72.8025 96.9162 73.2471 96.9162 73.84C96.9162 74.4329 96.741 74.8775 96.3773 75.174C96.0134 75.4704 95.5553 75.6186 95.0163 75.6186L93.1973 75.6725Z" fill="#030404"/>
<path d="M100.743 72.3309L100.002 73.8535H100.555C100.636 73.7322 100.73 73.584 100.838 73.4224C100.946 73.2606 101.053 73.0855 101.161 72.8968C101.269 72.7082 101.35 72.5195 101.417 72.3309C101.485 72.1422 101.511 71.967 101.511 71.8054C101.511 71.5359 101.431 71.3338 101.269 71.1856C101.107 71.0373 100.919 70.9699 100.703 70.9699C100.474 70.9699 100.285 71.0373 100.137 71.1856C99.9889 71.3338 99.9215 71.509 99.9215 71.7111C99.9215 71.9131 99.9889 72.0749 100.124 72.1961C100.258 72.3174 100.42 72.3714 100.609 72.3714H100.69L100.743 72.3309Z" fill="#030404"/>
<path d="M105.499 80.6985C105.971 80.6985 106.389 80.6312 106.766 80.4964C107.143 80.3617 107.467 80.1731 107.736 79.9305C108.006 79.688 108.208 79.405 108.356 79.0816C108.504 78.7583 108.572 78.4214 108.572 78.071C108.572 77.5051 108.41 77.0335 108.087 76.6427C107.763 76.252 107.278 75.9017 106.631 75.5917L105.365 74.9989C104.866 74.7698 104.529 74.5273 104.341 74.2847C104.152 74.0422 104.058 73.7323 104.058 73.3685C104.058 73.1798 104.085 73.0046 104.152 72.8295C104.219 72.6543 104.327 72.4926 104.475 72.3444C104.624 72.1962 104.812 72.0884 105.041 72.0075C105.27 71.9267 105.54 71.8862 105.836 71.8862C106.119 71.8862 106.443 71.9401 106.807 72.0614C107.17 72.1827 107.48 72.3444 107.75 72.5465L108.343 71.8458C108.114 71.6572 107.777 71.482 107.332 71.3068C106.887 71.1317 106.402 71.0509 105.877 71.0509C105.392 71.0509 104.974 71.1182 104.61 71.2664C104.246 71.4146 103.95 71.6033 103.707 71.8324C103.465 72.0614 103.29 72.3174 103.182 72.6138C103.074 72.9103 103.02 73.2068 103.02 73.5032C103.02 73.9882 103.141 74.4195 103.397 74.8102C103.653 75.201 104.085 75.5378 104.704 75.8343L106.079 76.481C106.564 76.7101 106.928 76.9526 107.17 77.2087C107.413 77.4647 107.534 77.8016 107.534 78.2193C107.534 78.4349 107.494 78.6504 107.399 78.8526C107.305 79.0546 107.17 79.2298 106.995 79.378C106.82 79.5263 106.604 79.6475 106.348 79.7419C106.092 79.8362 105.796 79.8766 105.472 79.8766C105.041 79.8766 104.637 79.8093 104.26 79.661C103.883 79.5128 103.546 79.3241 103.263 79.0951L102.67 79.8632C102.939 80.0788 103.29 80.2809 103.734 80.4695C104.179 80.6581 104.758 80.7525 105.459 80.7525L105.499 80.6985Z" fill="#030404"/>
<path d="M117.977 80.6985C118.57 80.6985 119.123 80.5908 119.648 80.3617C120.174 80.1327 120.645 79.8093 121.076 79.3915L120.308 78.7852C120.012 79.0951 119.675 79.3376 119.284 79.5128C118.894 79.688 118.462 79.7688 117.977 79.7688C117.465 79.7688 116.994 79.6745 116.562 79.4724C116.131 79.2703 115.767 78.9873 115.458 78.6235C115.148 78.2597 114.905 77.842 114.73 77.3568C114.555 76.8718 114.474 76.3597 114.474 75.8073C114.474 75.2548 114.555 74.7429 114.73 74.2577C114.905 73.7727 115.148 73.355 115.458 73.0046C115.767 72.6543 116.131 72.3714 116.562 72.1692C116.994 71.9671 117.465 71.8728 117.977 71.8728C118.462 71.8728 118.894 71.9536 119.284 72.1288C119.675 72.304 120.012 72.5465 120.308 72.8564L121.076 72.2501C120.645 71.8324 120.174 71.509 119.648 71.2799C119.123 71.0509 118.57 70.943 117.977 70.943C117.398 70.943 116.832 71.0509 116.279 71.2664C115.727 71.482 115.242 71.8054 114.824 72.2231C114.407 72.6408 114.07 73.1529 113.814 73.7592C113.558 74.3656 113.436 75.0393 113.436 75.7939C113.436 76.5484 113.558 77.2222 113.814 77.8285C114.07 78.4349 114.407 78.9469 114.824 79.3646C115.242 79.7823 115.727 80.1057 116.279 80.3348C116.832 80.5638 117.398 80.6716 117.977 80.6716V80.6985Z" fill="#030404"/>
<path d="M122.868 71.0643V80.4964H123.892L123.892 76.0498H129.201V80.4964H130.225V71.0643H129.201V75.1336H123.892L123.892 71.0643L122.868 71.0643Z" fill="#030404"/>
<path d="M136.867 80.6985C137.447 80.6985 138.013 80.5908 138.565 80.3617C139.118 80.1327 139.603 79.8093 140.02 79.3915C140.438 78.9738 140.775 78.4618 141.031 77.8555C141.287 77.2491 141.408 76.5754 141.408 75.8208C141.408 75.0663 141.287 74.3925 141.031 73.7862C140.775 73.1798 140.438 72.6678 140.02 72.2501C139.603 71.8324 139.118 71.509 138.565 71.2933C138.013 71.0778 137.447 70.97 136.867 70.97C136.288 70.97 135.722 71.0778 135.17 71.2933C134.617 71.509 134.132 71.8324 133.714 72.2501C133.297 72.6678 132.96 73.1798 132.704 73.7862C132.448 74.3925 132.326 75.0663 132.326 75.8208C132.326 76.5754 132.448 77.2491 132.704 77.8555C132.96 78.4618 133.297 78.9738 133.714 79.3915C134.132 79.8093 134.617 80.1327 135.17 80.3617C135.722 80.5908 136.288 80.6985 136.867 80.6985ZM136.867 79.7823C136.355 79.7823 135.884 79.688 135.452 79.4859C135.021 79.2837 134.658 79.0007 134.348 78.637C134.038 78.2732 133.795 77.8555 133.62 77.3704C133.445 76.8853 133.364 76.3732 133.364 75.8208C133.364 75.2683 133.445 74.7563 133.62 74.2712C133.795 73.7862 134.038 73.3685 134.348 73.0181C134.658 72.6678 135.021 72.3848 135.452 72.1827C135.884 71.9806 136.355 71.8862 136.867 71.8862C137.379 71.8862 137.851 71.9806 138.282 72.1827C138.713 72.3848 139.077 72.6678 139.387 73.0181C139.697 73.3685 139.94 73.7862 140.115 74.2712C140.29 74.7563 140.371 75.2684 140.371 75.8208C140.371 76.3732 140.29 76.8853 140.115 77.3704C139.94 77.8555 139.697 78.2732 139.387 78.637C139.077 79.0007 138.713 79.2837 138.282 79.4859C137.851 79.688 137.379 79.7823 136.867 79.7823Z" fill="#030404"/>
<path d="M144.535 71.0643H143.51V80.4964H144.535V71.0643Z" fill="#030404"/>
<path d="M151.178 80.6985C151.771 80.6985 152.323 80.5908 152.848 80.3617C153.374 80.1327 153.846 79.8093 154.277 79.3915L153.509 78.7852C153.212 79.0951 152.875 79.3376 152.485 79.5128C152.094 79.688 151.663 79.7688 151.178 79.7688C150.666 79.7688 150.194 79.6745 149.763 79.4724C149.332 79.2703 148.968 78.9873 148.658 78.6235C148.348 78.2597 148.105 77.842 147.93 77.3568C147.755 76.8718 147.674 76.3597 147.674 75.8073C147.674 75.2548 147.755 74.7429 147.93 74.2577C148.105 73.7727 148.348 73.355 148.658 73.0046C148.968 72.6543 149.332 72.3714 149.763 72.1692C150.194 71.9671 150.666 71.8728 151.178 71.8728C151.663 71.8728 152.094 71.9536 152.485 72.1288C152.875 72.304 153.212 72.5465 153.509 72.8564L154.277 72.2501C153.846 71.8324 153.374 71.509 152.848 71.2799C152.323 71.0509 151.771 70.943 151.178 70.943C150.598 70.943 150.032 71.0509 149.48 71.2664C148.927 71.482 148.442 71.8054 148.025 72.2231C147.607 72.6408 147.27 73.1529 147.014 73.7592C146.758 74.3656 146.637 75.0393 146.637 75.7939C146.637 76.5484 146.758 77.2222 147.014 77.8285C147.27 78.4349 147.607 78.9469 148.025 79.3646C148.442 79.7823 148.927 80.1057 149.48 80.3348C150.032 80.5638 150.598 80.6716 151.178 80.6716V80.6985Z" fill="#030404"/>
<path d="M156.069 71.0643V80.4964H161.822V79.5802H157.093V76.0498H160.246V75.1336H157.093V71.9805H161.728V71.0643L156.069 71.0643Z" fill="#030404"/>
</svg>
