<svg width="160" height="32" viewBox="0 0 160 32" fill="none" xmlns="http://www.w3.org/2000/svg">
<path fill-rule="evenodd" clip-rule="evenodd" d="M3.80673 32C1.4121 28.6759 0 24.586 0 20.1636C0 9.02768 8.95426 0 20 0C31.0458 0 40 9.02738 40 20.1636C40 24.586 38.5879 28.6759 36.1933 32L26.5872 16.2735L25.6595 17.8525L26.6007 22.2441L20 10.8574L15.9168 17.8082L16.8676 22.2438L13.4078 16.2823L3.80673 32Z" fill="#B1EB21"/>
<path fill-rule="evenodd" clip-rule="evenodd" d="M53.1693 24.6231H50V9.10156H53.6644L60.3991 19.2311V9.10156H63.5684V24.6231H60.3003L53.1693 13.9184V24.6231ZM66.716 15.4052C67.8451 14.3347 69.2316 13.7994 70.8361 13.7994C72.4406 13.7994 73.8073 14.3347 74.9164 15.3853C76.0255 16.436 76.5803 17.7245 76.5803 19.2905C76.5803 20.8764 76.0255 22.2044 74.8965 23.2749C73.7675 24.3256 72.4009 24.8609 70.7963 24.8609C69.1722 24.8609 67.8053 24.3455 66.6962 23.2948C65.587 22.2442 65.0323 20.9358 65.0323 19.3499C65.0326 17.7841 65.587 16.4559 66.716 15.4052ZM68.9545 21.2731C69.4496 21.7686 70.0835 22.0263 70.8165 22.0263C72.3021 22.0263 73.4112 20.8963 73.4112 19.3104C73.4112 18.5373 73.1538 17.883 72.6587 17.3875C72.1636 16.8721 71.5296 16.6144 70.7966 16.6144C70.0636 16.6144 69.4499 16.8721 68.9545 17.3875C68.4594 17.883 68.2019 18.5373 68.2019 19.3104C68.2016 20.1034 68.4591 20.7577 68.9545 21.2731ZM81.137 15.6629C81.5935 14.6912 82.7223 13.9178 84.128 13.9178C84.306 13.9178 84.4578 13.9278 84.5846 13.954V17.0282C84.3982 17.0017 84.2087 16.9903 84.0094 16.9903C82.0088 16.9903 81.137 18.2405 81.137 20.1438V24.6237H78.0472V14.0384H81.1174V15.6629H81.137ZM151.781 13.9178C150.375 13.9178 149.246 14.6912 148.79 15.6629H148.77V14.0384H145.7V24.6237H148.79V20.1438C148.79 18.2405 149.661 16.9903 151.662 16.9903C151.861 16.9903 152.051 17.0017 152.237 17.0282V13.954C152.11 13.9278 151.959 13.9178 151.781 13.9178ZM93.4701 23.2752H93.5098V24.6231H96.5009V9.10156H93.4306V15.247H93.3909C92.5985 14.3154 91.5487 13.8395 90.2215 13.8395C88.7757 13.8395 87.5675 14.3946 86.5969 15.5246C85.6266 16.6346 85.1511 17.9032 85.1511 19.3107C85.1511 20.7975 85.6266 22.1058 86.5574 23.196C87.4883 24.2861 88.6965 24.8214 90.1821 24.8214C91.6677 24.8214 92.7768 24.306 93.4701 23.2752ZM88.2806 19.3104C88.2806 17.7443 89.4096 16.6343 90.8952 16.6343C92.3808 16.6343 93.5098 17.7443 93.5098 19.3104C93.5098 20.1031 93.2523 20.7574 92.7572 21.2728C92.2618 21.7683 91.6282 22.026 90.8952 22.026C90.1622 22.026 89.5283 21.7683 89.0332 21.2728C88.5381 20.7574 88.2806 20.1034 88.2806 19.3104ZM102.172 9.10156V21.5706H108.807V24.6234H98.9833V9.10156H102.172ZM109.976 21.6694C109.976 22.6212 110.313 23.3943 111.006 23.969C111.699 24.5438 112.551 24.8214 113.541 24.8211C114.947 24.8211 115.997 24.3057 116.71 23.2948L116.75 23.3147V24.6234H119.602V18.0617C119.602 15.2865 117.8 13.7997 115.007 13.7997C112.69 13.7997 111.065 14.6321 110.154 16.3172L112.511 17.7247C113.046 16.7732 113.819 16.2973 114.868 16.2973C115.978 16.2973 116.572 16.8721 116.572 17.6057C116.572 18.1211 116.295 18.3788 115.74 18.3788H114.69C113.501 18.3788 112.511 18.5572 111.541 19.0132C110.59 19.4692 109.976 20.3809 109.976 21.6299V21.6694ZM116.552 20.2818V20.5196C116.552 21.6893 115.76 22.5615 114.433 22.5615C113.64 22.5615 113.086 22.2047 113.086 21.491C113.086 20.698 113.799 20.2818 114.69 20.2818H116.552ZM120.634 14.0375H124.041L126.676 20.0835L129.033 14.0375H132.222L125.804 29.8366H122.496L125.091 23.4932L120.634 14.0375ZM138.491 22.2641C137.164 22.2641 136.054 21.4711 135.876 20.1826H143.561C143.581 19.9448 143.601 19.5681 143.601 19.0726C143.601 17.5065 143.106 16.2181 142.135 15.2467C141.164 14.2753 139.897 13.7798 138.332 13.7798C136.807 13.7798 135.48 14.3151 134.371 15.4052C133.281 16.4954 132.727 17.7841 132.727 19.3104C132.727 20.9358 133.281 22.2641 134.391 23.3147C135.52 24.3455 136.886 24.8609 138.53 24.8609C140.689 24.8609 142.195 24.0682 143.086 22.4624L140.848 20.9955C140.372 21.7686 139.422 22.2641 138.491 22.2641ZM138.253 16.2973C139.659 16.2973 140.432 17.2094 140.511 18.141H135.955C136.015 17.7248 136.252 17.3082 136.668 16.9119C137.084 16.4957 137.619 16.2973 138.253 16.2973Z" fill="black"/>
<path fill-rule="evenodd" clip-rule="evenodd" d="M157.748 13.129C157.477 13.1293 157.209 13.0761 156.958 12.9724C156.708 12.8686 156.481 12.7165 156.289 12.5247C156.098 12.3329 155.946 12.1052 155.843 11.8546C155.74 11.604 155.687 11.3355 155.688 11.0645C155.688 10.517 155.905 9.99185 156.292 9.60468C156.68 9.21751 157.205 9 157.752 9C158.3 9 158.825 9.21751 159.212 9.60468C159.599 9.99185 159.817 10.517 159.817 11.0645C159.817 11.336 159.763 11.6048 159.659 11.8555C159.555 12.1063 159.403 12.334 159.211 12.5258C159.018 12.7176 158.79 12.8696 158.539 12.9731C158.288 13.0766 158.02 13.1296 157.748 13.129ZM157.748 9.37574C156.823 9.37574 156.079 10.1262 156.079 11.0645C156.079 12.0039 156.823 12.7533 157.748 12.7533C158.667 12.7533 159.425 12.0028 159.425 11.0645C159.425 10.1252 158.666 9.37574 157.748 9.37574ZM157.44 11.3948V12.2434H156.951V9.88568H157.884C158.343 9.88568 158.727 10.1262 158.727 10.6289C158.734 10.7752 158.694 10.9199 158.612 11.0417C158.531 11.1635 158.412 11.2558 158.274 11.305L158.764 12.2434H158.23L157.801 11.3948H157.44ZM158.23 10.6444C158.23 10.4111 158.034 10.3512 157.846 10.3512H157.44V10.9365H157.853C158.034 10.9365 158.23 10.8622 158.23 10.6444Z" fill="black"/>
</svg>
