<svg width="215" height="215" viewBox="0 0 215 215" fill="none" xmlns="http://www.w3.org/2000/svg">
<path d="M25.559 135.821V78.179H72.494V135.821H25.559Z" fill="#E01F26"/>
<path d="M38.602 100.176V87.6C40.374 87.6 41.097 88.1 41.097 89.764V98.011C41.097 99.678 40.374 100.176 38.602 100.176ZM48.097 89.181C48.097 84.518 45.922 82.016 40.773 82.016H30.798V120.668H38.602V105.756H40.773C45.922 105.756 48.097 103.258 48.097 98.592V89.181ZM67.322 104.174H59.923V113.919C59.923 114.919 59.52 115.337 58.713 115.337C57.907 115.337 57.51 114.919 57.51 113.919V88.683C57.51 87.847 57.914 87.346 58.714 87.346C59.513 87.346 59.924 87.843 59.924 88.683V97.505H67.324V89.015C67.324 84.849 65.316 81.853 59.038 81.853C52.759 81.853 49.705 84.358 49.705 89.015V113.59C49.705 118.334 52.761 120.84 59.035 120.84C65.309 120.84 67.322 117.838 67.322 113.59V104.174ZM66.031 132.019V128.893C66.031 127.855 66.051 127.629 66.056 126.976C65.989 127.629 65.971 128.115 65.846 128.893C65.684 129.942 65.346 132.019 65.346 132.019H64.283C64.283 132.019 63.936 129.941 63.767 128.893C63.658 128.258 63.5816 127.618 63.538 126.976C63.563 127.659 63.563 127.855 63.563 128.893V132.019H62.411V125.14H64.031C64.246 126.414 64.446 127.792 64.609 128.706C64.677 129.119 64.704 129.295 64.791 129.853C64.871 129.305 64.912 129.075 64.975 128.714C65.139 127.8 65.354 126.396 65.58 125.14H67.178V132.019H66.031ZM60.001 125.896C59.421 125.896 59.381 126.565 59.381 128.588C59.381 130.683 59.439 131.248 60.001 131.248C60.583 131.248 60.631 130.683 60.631 128.588C60.631 126.566 60.583 125.896 60.001 125.896ZM60.001 132.146C58.661 132.146 58.074 131.507 58.074 128.588C58.074 125.765 58.661 125.033 60.001 125.033C61.341 125.033 61.938 125.794 61.938 128.588C61.938 131.446 61.34 132.146 60.001 132.146ZM55.999 132.146C54.486 132.146 54.035 131.295 54.035 128.698C54.035 126.025 54.448 125.033 55.949 125.033C57.449 125.033 57.642 126.027 57.642 127.141C57.64 127.326 57.629 127.511 57.607 127.694L56.431 127.73C56.4463 127.552 56.455 127.374 56.457 127.196C56.457 126.343 56.359 125.9 55.949 125.9C55.446 125.9 55.34 126.36 55.34 128.647C55.34 130.806 55.4 131.252 55.986 131.252C56.469 131.252 56.546 130.707 56.546 129.892C56.546 129.657 56.536 129.422 56.514 129.188L57.663 129.218C57.687 129.412 57.699 129.607 57.699 129.802C57.699 131.37 57.3 132.15 55.994 132.15L55.999 132.146ZM52.296 132.019V130.497H53.669V132.019H52.296ZM51.239 132.019L50.952 131.485C50.735 131.86 50.524 132.141 49.919 132.141C48.629 132.141 48.041 131.413 48.041 128.8C48.041 125.79 48.569 125.029 49.998 125.029C51.289 125.029 51.651 125.803 51.651 127.114C51.651 127.232 51.641 127.448 51.63 127.539L50.446 127.573C50.462 127.431 50.468 127.288 50.464 127.145C50.464 126.352 50.36 125.892 49.978 125.892C49.416 125.892 49.35 126.362 49.35 128.763C49.35 130.97 49.486 131.244 49.977 131.244C50.531 131.244 50.663 130.798 50.663 129.857C50.663 129.731 50.663 129.64 50.653 129.404H49.998V128.416H51.753V132.015L51.239 132.019ZM45.989 128.026C45.9451 127.674 45.9104 127.321 45.885 126.967C45.867 127.197 45.841 127.606 45.791 128.014C45.686 128.866 45.573 129.81 45.573 129.81H46.218C46.218 129.81 46.088 128.866 45.993 128.026H45.989ZM46.603 132.019L46.378 130.754H45.418L45.206 132.019H44.006L45.276 125.113H46.557L47.932 132.019H46.603ZM42.463 132.019V128.893C42.463 127.855 42.483 127.629 42.493 126.976C42.421 127.629 42.402 128.115 42.283 128.893C42.119 129.941 41.773 132.019 41.773 132.019H40.708C40.708 132.019 40.363 129.941 40.199 128.893C40.0905 128.258 40.0145 127.618 39.971 126.976C39.999 127.659 39.999 127.855 39.999 128.893V132.019H38.849V125.14H40.468C40.683 126.414 40.881 127.792 41.044 128.706C41.116 129.119 41.142 129.295 41.228 129.853C41.304 129.305 41.351 129.075 41.411 128.714C41.573 127.8 41.787 126.396 42.014 125.14H43.614V132.019H42.463ZM36.626 132.146C35.113 132.146 34.665 131.295 34.665 128.698C34.665 126.025 35.078 125.033 36.574 125.033C38.07 125.033 38.272 126.027 38.272 127.141C38.27 127.326 38.258 127.511 38.237 127.694L37.058 127.73C37.076 127.554 37.085 127.317 37.085 127.196C37.085 126.343 36.991 125.9 36.569 125.9C36.069 125.9 35.965 126.36 35.965 128.647C35.965 130.806 36.023 131.252 36.61 131.252C37.092 131.252 37.167 130.707 37.167 129.892C37.1688 129.657 37.1584 129.422 37.136 129.188L38.287 129.218C38.309 129.412 38.32 129.607 38.32 129.802C38.32 131.37 37.92 132.15 36.615 132.15L36.626 132.146ZM32.272 126.053H32.07V128.427H32.35C32.737 128.427 32.973 128.095 32.973 127.253C32.973 126.376 32.766 126.05 32.273 126.05V126.053H32.272ZM32.514 129.394H32.07V132.018H30.807V125.14H32.39C33.603 125.14 34.275 125.721 34.275 127.248C34.275 128.852 33.647 129.396 32.514 129.396V129.394Z" fill="white"/>
<path d="M73.541 135.821V78.179H173.442L188.442 107.001L173.442 135.821H73.541Z" fill="#E01F26"/>
<path d="M182.746 81.804H183.054C183.414 81.804 183.699 81.68 183.699 81.379C183.699 81.111 183.511 80.936 183.1 80.936C182.979 80.933 182.859 80.945 182.741 80.972V81.804H182.746ZM182.73 83.449H182.084V80.547C182.439 80.4812 182.8 80.4511 183.161 80.457C183.69 80.457 183.935 80.547 184.135 80.672C184.224 80.7519 184.294 80.8501 184.341 80.9599C184.389 81.0698 184.411 81.1885 184.408 81.308C184.408 81.626 184.169 81.875 183.827 81.976V82.012C184.101 82.118 184.254 82.33 184.343 82.719C184.43 83.162 184.48 83.339 184.55 83.445H183.848C183.764 83.34 183.718 83.074 183.626 82.738C183.575 82.418 183.405 82.277 183.045 82.277H182.737V83.445L182.73 83.449ZM181.002 81.927C181.002 83.219 181.927 84.246 183.197 84.246C184.429 84.246 185.335 83.219 185.335 81.946C185.335 80.672 184.431 79.609 183.18 79.609C181.929 79.609 181.009 80.653 181.009 81.927H181.002ZM186.045 81.927C186.031 82.7012 185.722 83.4408 185.18 83.994C184.917 84.2627 184.604 84.4764 184.258 84.6227C183.912 84.7689 183.541 84.8449 183.165 84.846C182.789 84.8447 182.418 84.7687 182.072 84.6224C181.726 84.4762 181.413 84.2625 181.15 83.994C180.609 83.4405 180.3 82.701 180.286 81.927C180.284 81.5465 180.357 81.1694 180.501 80.8174C180.646 80.4653 180.858 80.1452 181.127 79.8755C181.395 79.6058 181.714 79.3919 182.065 79.2459C182.417 79.0999 182.793 79.0249 183.174 79.025C184.78 79.025 186.045 80.317 186.045 81.927Z" fill="#231F20"/>
<path d="M80.598 89.304H89.447V91.697H83.283V95.707H88.259V98.1H83.283V102.218H89.778V104.61H80.598V89.304ZM92.568 89.304H97.603C102.163 89.304 105.14 92.111 105.14 96.936C105.14 101.76 102.163 104.61 97.603 104.61H92.568V89.304ZM97.461 102.217C100.459 102.217 102.367 100.385 102.367 96.936C102.367 93.529 100.41 91.696 97.461 91.696H95.253V102.218L97.461 102.217ZM107.95 89.304H110.637V104.61H107.95V89.304ZM117.445 91.702H112.598V89.304H124.985V91.697H120.132V104.61H117.445V91.702ZM133.434 89.051C137.785 89.051 141.075 92.479 141.075 96.854C141.075 101.36 137.785 104.874 133.434 104.874C129.084 104.874 125.793 101.362 125.793 96.854C125.793 92.479 129.082 89.051 133.434 89.051ZM133.434 102.331C136.145 102.331 138.305 100.002 138.305 96.85C138.305 93.833 136.14 91.591 133.434 91.591C130.728 91.591 128.562 93.833 128.562 96.85C128.562 99.998 130.727 102.331 133.434 102.331ZM143.801 89.304H148.569C150.171 89.304 150.9 89.438 151.546 89.736C153.024 90.426 153.96 91.891 153.96 93.917C153.96 95.75 153.024 97.453 151.462 98.1V98.143C151.658 98.372 151.826 98.625 151.962 98.897L155.002 104.61H152.004L149.068 98.902H146.486V104.616H143.801V89.304ZM148.902 96.483C150.338 96.483 151.233 95.599 151.233 94.068C151.233 92.598 150.629 91.697 148.522 91.697H146.486V96.483H148.902ZM157.832 100.692C157.832 100.692 159.436 102.308 161.517 102.308C162.641 102.308 163.661 101.705 163.661 100.454C163.661 97.718 156.69 98.191 156.69 93.492C156.69 90.952 158.813 89.052 161.645 89.052C164.56 89.052 166.059 90.689 166.059 90.689L164.897 92.953C164.897 92.953 163.477 91.616 161.628 91.616C160.378 91.616 159.401 92.37 159.401 93.449C159.401 96.164 166.354 95.497 166.354 100.389C166.354 102.826 164.564 104.874 161.482 104.874C158.192 104.874 156.381 102.783 156.381 102.783L157.832 100.692ZM169.053 89.051H171.489L169.949 93.771H168.074L169.053 89.051ZM87.177 110.144C90.779 110.144 92.632 112.236 92.632 112.236L91.341 114.305C91.341 114.305 89.655 112.688 87.301 112.688C84.178 112.688 82.346 115.102 82.346 117.948C82.346 120.858 84.241 123.429 87.323 123.429C89.883 123.429 91.612 121.489 91.612 121.489L93.032 123.494C93.032 123.494 90.992 125.973 87.222 125.973C82.704 125.973 79.582 122.497 79.582 117.996C79.578 113.55 82.825 110.144 87.177 110.144ZM95.503 110.403H98.189V116.892H104.956V110.403H107.641V125.709H104.956V119.285H98.189V125.709H95.503V110.403ZM118.009 110.144C122.359 110.144 125.649 113.571 125.649 117.948C125.649 122.453 122.359 125.969 118.009 125.969C113.658 125.969 110.367 122.454 110.367 117.948C110.367 113.571 113.656 110.144 118.009 110.144ZM118.009 123.424C120.72 123.424 122.88 121.096 122.88 117.943C122.88 114.924 120.715 112.682 118.009 112.682C115.303 112.682 113.136 114.924 113.136 117.943C113.136 121.096 115.301 123.424 118.009 123.424ZM128.375 110.403H131.059V125.709H128.374L128.375 110.403ZM141.387 110.144C144.989 110.144 146.841 112.236 146.841 112.236L145.55 114.305C145.55 114.305 143.864 112.688 141.512 112.688C138.389 112.688 136.557 115.102 136.557 117.948C136.557 120.858 138.451 123.429 141.533 123.429C144.094 123.429 145.822 121.489 145.822 121.489L147.242 123.494C147.242 123.494 145.201 125.973 141.432 125.973C136.913 125.973 133.792 122.497 133.792 117.996C133.787 113.55 137.035 110.144 141.387 110.144ZM149.713 110.403H158.558V112.796H152.396V116.806H157.371V119.199H152.396V123.317H158.891V125.711H149.713V110.403Z" fill="white"/>
</svg>
