<svg width="132" height="61" viewBox="0 0 132 61" fill="none" xmlns="http://www.w3.org/2000/svg">
<path fill-rule="evenodd" clip-rule="evenodd" d="M30.9301 29.6555C30.9301 38.2528 24.1214 45.2163 15.7151 45.2163C7.30874 45.2163 0.5 38.2528 0.5 29.6555C0.5 21.0581 7.30874 14.0946 15.7151 14.0946C24.1214 14.0946 30.9301 21.0581 30.9301 29.6555ZM17.7437 21.875C20.6853 21.875 23.069 24.3129 23.069 27.3213C23.069 30.3298 20.6853 32.7676 17.7437 32.7676H13.4328V37.4359H10.3898V21.875H17.7437ZM43.2036 31.017V34.8424H41.0735V24.4685H45.7394C47.9076 24.4685 49.0868 25.9598 49.0868 27.7493C49.0868 29.5258 47.8949 31.017 45.7394 31.017H43.2036ZM71.2247 24.4685H69.3101V28.229C68.7395 27.464 67.9281 27.1009 67.0786 27.1009C65.2401 27.1009 63.8834 28.5662 63.8834 30.9652C63.8834 33.4419 65.2654 34.8424 67.0786 34.8424C67.9661 34.8424 68.7395 34.4534 69.3101 33.7143V34.8424H71.2247V24.4685ZM107.259 24.4685H105.116V28.4754H100.412V24.4685H98.2948V34.8424H100.412V30.3687H105.116V34.8424H107.259V24.4685ZM126.874 32.8065C126.874 34.1422 127.571 34.8424 128.915 34.8554C129.714 34.8554 130.221 34.6349 130.5 34.3756L130.094 32.8973C129.993 33.027 129.714 33.1307 129.435 33.1307C129.017 33.1307 128.776 32.7806 128.776 32.3008V28.9812H130.234V27.2824H128.776V25.2595H126.874V27.2695H125.682V28.9682H126.874V32.8065ZM124.591 34.8424V29.448C124.591 28.0216 123.831 27.1009 122.233 27.1009C121.067 27.1009 120.179 27.6844 119.71 28.229V27.2824H117.808V34.8424H119.71V29.6814C120.04 29.2535 120.61 28.8255 121.358 28.8255C122.17 28.8255 122.69 29.1757 122.69 30.2001V34.8424H124.591ZM115.957 27.2824V34.8424H114.042V33.7272C113.548 34.2718 112.686 34.8424 111.507 34.8424C109.922 34.8424 109.174 33.9606 109.174 32.5213V27.2824H111.075V31.7562C111.075 32.7806 111.595 33.1178 112.407 33.1178C113.142 33.1178 113.725 32.7028 114.055 32.2749V27.2824H115.957ZM91.6509 34.8554C90.3069 34.8424 89.6095 34.1422 89.6095 32.8065V28.9682H88.4177V27.2695H89.6095V25.2595H91.5114V27.2824H92.9695V28.9812H91.5114V32.3008C91.5114 32.7806 91.7523 33.1307 92.1707 33.1307C92.4497 33.1307 92.7286 33.027 92.83 32.8973L93.2358 34.3756C92.9568 34.6349 92.4497 34.8554 91.6509 34.8554ZM81.292 30.9652C81.292 33.2345 82.9022 34.8424 85.1211 34.8683C86.6046 34.8683 87.4921 34.194 87.9739 33.5197L86.7313 32.3267C86.389 32.8195 85.8692 33.1307 85.2098 33.1307C84.0687 33.1307 83.2572 32.2619 83.2572 30.9781C83.2572 29.6944 84.056 28.8385 85.2098 28.8385C85.8692 28.8385 86.389 29.1108 86.7313 29.6295L87.9739 28.4365C87.4921 27.7622 86.6046 27.1009 85.1211 27.1009C82.9022 27.1009 81.292 28.7088 81.292 30.9652ZM79.8846 27.2824V34.8424H77.97V33.7272C77.4755 34.2718 76.6133 34.8424 75.4342 34.8424C73.8493 34.8424 73.1012 33.9606 73.1012 32.5213V27.2824H75.0031V31.7562C75.0031 32.7806 75.5229 33.1178 76.3344 33.1178C77.0698 33.1178 77.653 32.7028 77.9827 32.2749V27.2824H79.8846ZM67.6872 33.1178C68.3084 33.1178 68.9931 32.7676 69.3101 32.2749V29.6684C68.9931 29.1757 68.3084 28.8255 67.6872 28.8255C66.5968 28.8255 65.8487 29.6944 65.8487 30.9652C65.8487 32.2489 66.5968 33.1178 67.6872 33.1178ZM55.2869 30.9652C55.2869 33.0529 56.7196 34.8424 59.0907 34.8424C61.487 34.8424 62.9198 33.0529 62.9198 30.9652C62.9198 28.8774 61.487 27.1009 59.0907 27.1009C56.7196 27.1009 55.2869 28.8774 55.2869 30.9652ZM59.1033 33.1178C60.2952 33.1178 60.9545 32.1193 60.9545 30.9652C60.9545 29.824 60.2952 28.8255 59.1033 28.8255C57.9242 28.8255 57.2649 29.824 57.2649 30.9652C57.2649 32.1322 57.9242 33.1178 59.1033 33.1178ZM50.3674 34.8554H52.2819V29.7981C52.5862 29.3183 53.423 28.9552 54.057 28.9552C54.2726 28.9552 54.4374 28.9682 54.5769 28.9941V27.1009C53.6766 27.1009 52.7891 27.6455 52.2692 28.2809V27.2824H50.3674V34.8554ZM46.9186 27.7493C46.9186 28.5921 46.272 29.1108 45.4351 29.1108H43.1909V26.3747H45.4351C46.272 26.3747 46.9186 26.8934 46.9186 27.7493ZM17.7437 29.6555C18.999 29.6555 20.026 28.6051 20.026 27.3213C20.026 26.0376 18.999 24.9872 17.7437 24.9872H13.4328V29.6555H17.7437Z" fill="#DA552F"/>
</svg>
