<svg width="133" height="61" viewBox="0 0 133 61" fill="none" xmlns="http://www.w3.org/2000/svg">
<path d="M94.2116 24.812L94.1035 28.0594C90.3115 27.7995 89.2282 28.774 89.2282 31.9563V32.3669H85.9783V25.0067H89.2282V27.1068C90.2034 25.3966 91.5252 24.6172 94.2116 24.812ZM16.8598 38.0183H20.1098V25.461H16.8598V38.018V38.0183ZM32.9585 24.8338C30.6834 24.8338 29.2968 25.8513 28.56 26.9768V20.0491H11.4429V23.08H25.5267V32.3669H28.6248C28.6248 29.7041 30.1635 27.8213 32.0484 27.8213C33.6738 27.8213 34.4102 28.6222 34.4102 31.5016V38.0183H37.6601V30.3327C37.6601 26.6525 35.7752 24.8338 32.9585 24.8338ZM45.742 35.5281C43.7705 35.5281 42.4921 34.3373 42.2755 32.3673H39.2203C39.5235 35.8313 41.7986 38.2779 45.7205 38.2779C48.7539 38.2779 50.4655 36.9139 51.3541 34.8572L48.6021 33.6446C48.1904 34.8786 47.4321 35.5281 45.742 35.5281ZM45.6121 24.8982C44.452 24.8726 43.3042 25.1407 42.2755 25.6776L43.8353 27.8858C44.4203 27.5829 45.0489 27.4311 45.7205 27.4526C47.5406 27.4526 48.4721 28.6437 48.6021 30.2021H45.4603V32.3673H51.6573C51.7006 32.0425 51.7225 31.7393 51.7225 31.415C51.7439 26.6951 48.6239 24.8982 45.6121 24.8982ZM77.7879 35.5281C75.8164 35.5281 74.538 34.3373 74.3214 32.3673H71.2662C71.5694 35.8313 73.8445 38.2779 77.7664 38.2779C80.7998 38.2779 82.5114 36.9139 83.3999 34.8572L80.648 33.6446C80.2148 34.8786 79.4566 35.5281 77.7879 35.5281ZM77.6798 24.8982C76.5195 24.8726 75.3717 25.1407 74.3428 25.6776L75.903 27.8858C76.488 27.5829 77.1163 27.4311 77.7879 27.4526C79.608 27.4526 80.5399 28.6437 80.6698 30.2021H77.528V32.3673H83.725C83.7683 32.0425 83.7898 31.7393 83.7898 31.415C83.8117 26.6951 80.6913 24.8982 77.6798 24.8982ZM115.771 35.5281C113.799 35.5281 112.521 34.3373 112.304 32.3673H109.249C109.552 35.8313 111.827 38.2779 115.749 38.2779C118.782 38.2779 120.494 36.9139 121.383 34.8572L118.631 33.6446C118.197 34.8786 117.439 35.5281 115.771 35.5281ZM115.597 24.8982C114.437 24.8726 113.289 25.1407 112.261 25.6776L113.821 27.8858C114.406 27.5829 115.034 27.4311 115.706 27.4526C117.526 27.4526 118.457 28.6437 118.587 30.2021H115.446V32.3673H121.642C121.686 32.0425 121.708 31.7393 121.708 31.415C121.729 26.6951 118.609 24.8982 115.597 24.8982ZM53.3907 18.5118L59.2362 32.3669H62.7897L58.3308 21.3479H64.0943V18.5337L53.3907 18.5122V18.5118ZM70.7245 18.5333L64.0291 35.4851L63.0325 38.0183H66.4342L74.4728 18.5337H70.7245V18.5333ZM100.604 37.7151C101.99 37.7151 103.139 37.3252 103.94 36.6543L102.64 34.5976C102.229 34.7709 101.774 34.8357 101.319 34.8357C99.5419 34.8357 98.5234 33.7749 98.1769 32.3676H94.9917C95.4253 35.377 97.5919 37.7151 100.604 37.7151ZM104.612 26.8254C103.876 25.6565 102.38 24.812 100.3 24.812C98.2635 24.7905 96.3786 25.8946 95.3819 27.6914L98.0902 29.4234C98.5886 28.3841 99.5638 27.6914 101.059 27.6914C103.182 27.6914 104.612 29.3368 104.612 31.285C104.612 31.6534 104.569 32.0214 104.461 32.3676H107.862V25.0286H104.612V26.8254ZM101.47 40.6593C99.3687 40.6593 98.5886 39.6419 98.4368 38.4512H95.3386C95.4034 40.7245 96.9203 43.214 101.535 43.214C104.655 43.214 106.692 41.6553 107.537 39.3172L104.612 38.2997C104.2 39.8151 103.074 40.6593 101.47 40.6593Z" fill="#4902F4"/>
</svg>
