<svg width="132" height="60" viewBox="0 0 132 60" fill="none" xmlns="http://www.w3.org/2000/svg"><path d="M31.244 30.488l.063.012-.018.062.007.004.094-.11-.005-.007-.141.03v.009zm.01-.174l.009.005.081-.088-.005-.008-.118.02v.01l.051.012-.017.05zm-.269.69h-.095l-.003.009.038.016-.02.036.007.006.076-.059-.003-.008zm.204-.16l-.12.003-.001.01.048.02-.023.046.007.006.092-.077-.003-.009zm.097-.106l.066.01-.015.064.008.005.09-.12-.005-.008-.145.04v.009zm-.319.477l-.002.01.039.016-.02.036.007.006.076-.059-.003-.008h-.097zm.6.008l.064-.07-.005-.009-.094.017v.01l.04.009-.014.039.008.004zm.047-.606l.11-.152-.005-.007-.18.052v.01l.084.01-.018.083.009.004zm-.347.43h-.12l-.003.01.05.02-.027.046.007.006.095-.073-.002-.009zm.22-.821l.082.022-.03.08.008.005.13-.135-.004-.009-.186.027v.01zm-.056.83l.097-.115-.005-.008-.146.03v.01l.065.014-.02.064.01.004zm.3-1.156l.008.006.076-.06-.003-.008h-.096l-.002.01.038.016-.02.036zm-.26.16l.007.006.118-.092-.003-.008h-.15l-.002.009.062.026-.032.06zm.492.743v.01l.051.012-.018.05.008.005.082-.088-.004-.009-.119.02zm.357-.845l.008.007.076-.06-.003-.008h-.096l-.002.01.038.016-.02.035zm-.956 1.276h-.097v.009l.036.016-.02.036.008.006.076-.058-.003-.01zm.688-1.32l.007.006.095-.073-.003-.009h-.12l-.002.01.048.02-.025.046zm-.184.639l.066.012-.019.064.009.005.095-.116-.005-.008-.146.033v.01zm.092-.855l.488.001s.154.058.356.14a.208.208 0 01.135.216s.08.08.124.131c.053.061.06.146.018.202a.19.19 0 01-.126.071l-.004-.009c.032-.032.019-.083-.01-.124-.029-.043-.056-.051-.086-.033l-.03.021.075.121-.002.01c-.061.016-.145.003-.183-.047h-.376v.01l.209.038.006.014-.718.844.007.007.244-.219v.19l-.022.058.023.134-.008.057s.222.19.224.19l.006.003a.186.186 0 01.008.005l.011.006a.34.34 0 01.012.008l.012.009.011.01a.426.426 0 01.012.012l.01.014.008.013.007.013a.098.098 0 01.005.013l.004.012a.194.194 0 00.005.018h.01s.003-.003.004-.008a.032.032 0 00.003-.01l.002-.016v-.008l-.002-.01c0-.006-.003-.012-.004-.019a.115.115 0 00-.021-.038l-.016-.014a.092.092 0 00-.018-.013c-.006-.003-.012-.006-.018-.007a.076.076 0 00-.007-.002l.083-.02v.001l.01.005a.055.055 0 01.01.006.06.06 0 01.011.008c.005.002.009.006.013.009l.011.01a.125.125 0 01.012.012l.01.013.008.014.007.013.006.013a.041.041 0 01.003.012.053.053 0 01.004.009.152.152 0 00.002.009h.01l.003-.009a.029.029 0 00.003-.01l.002-.015v-.009l-.001-.009-.005-.019a.116.116 0 00-.01-.02c-.002-.006-.007-.011-.011-.017l-.016-.016a.141.141 0 00-.018-.012l-.017-.007c.393-.085.697-.142.697-.142.398.235.373.22.455.266.151.084.145.331-.141.331a5.58 5.58 0 00-.857.084l.215-.195-.007-.006s-.212.154-.464.28c-.137.055-.343.144-.555.239l.313-.297-.007-.007s-.4.322-.684.473l-.4.182a.396.396 0 01-.333.022 16.76 16.76 0 01-.457-.167c-.1-.038-.108-.18 0-.214l.25-.08.108.048a28.993 28.993 0 00.248.108l.018.008.01.004.004.002.003.002a.1.1 0 01.028.02.11.11 0 01.04.093c0 .012-.003.022-.005.03l-.003.01.011.004.005-.011a.135.135 0 00.004-.085.14.14 0 00-.035-.06.19.19 0 00-.03-.024l-.003-.001v-.001l-.003-.002-.004-.002-.008-.005-.018-.01-.074-.042-.16-.092-.327-.187s.423-.133.963-.282l.087.038.003-.006.002-.002-.051-.04-.134-.109-.066-.023-.045-.12-.06-.034-.058-.27-.01.002.024.294-.168.095v-.39l-.01-.001-.048.41-.227.045.077-.447-.01-.002-.138.456-.222.015.16-.476-.009-.004-.237.485-.219.015.256-.503-.009-.005-.35.518-.232.036.378-.558-.008-.006-.637.74-.034-.022.57-.895.875-.327.092-.04c.017-.007.035-.014.054-.024.01-.004.018-.01.027-.015a.395.395 0 00.073-.057l.01-.01.01-.012.019-.023.016-.023.013-.024.01-.022.01-.022a.44.44 0 00.013-.04l.007-.03.003-.021v-.007l-.01-.002-.001.007a.274.274 0 01-.005.02.168.168 0 01-.01.029l-.014.036-.01.02-.012.021-.015.021-.016.02-.019.02-.01.01-.01.009a.378.378 0 01-.071.047l-.026.011-.052.02-.095.034-.067.023-.056-.113.113-.1-.006-.007-.303.185-.07-.142.409-.303-.007-.01-.623.373-.057-.15.587-.392-.005-.008-.756.415-.036-.141.64-.407-.005-.008-.783.4-.023-.168.647-.348-.004-.008-.8.333-.004-.163.653-.255-.003-.01-.793.217.01-.178.602-.139-.002-.009-.77.106.024-.154.567-.061v-.01l-.793.013.013-.13.631-.004.001-.01-1.135-.083-.002-.01.184-.064v-.01l-.47-.179v-.01l.189-.015.001-.01-.405-.25.002-.014.284.016.004-.009-.328-.307.004-.01.154.03.005-.007-.154-.194-.095-.274.01-.005.147.185.332.192.008-.007-.215-.315-.08-.352.01-.004.173.26.336.273.006-.006-.205-.373-.07-.456.01-.002.201.388.421.35.008-.007-.29-.466-.066-.558.01-.003.18.495.598.538.753.385.826 1.148.322.271.007-.007-.14-.183h.001-.002l.332-.086v-.01l-.288-.017-.001-.01.422-.075-.001-.01-.527-.04v-.01l.671-.112.267.063.003-.01-.255-.116-.416.009-.001-.01.445-.084.275.094.004-.009-.25-.158-.296-.012v-.01l.33-.052.29.135.006-.008-.239-.224-.26-.002-.001-.01.316-.07.281.23.007-.007-.216-.315-.236-.044.002-.01.297-.018.268.326.008-.005-.192-.406-.258-.084.002-.01.328.027.25.428.008-.004-.165-.503-.323-.115.002-.01.39.07.218.517.01-.003-.143-.576-.346-.196.005-.01.411.157.196.577.01-.002-.123-.63-.376-.275.006-.009.438.24.171.608.01-.002-.107-.65-.395-.35.007-.008.46.314.134.62.01-.002-.068-.658-.393-.426.006-.008.456.39.1.6.01-.001-.044-.63-.372-.486.007-.007.439.458.069.519h.01l-.023-.55-.34-.521.008-.006.393.499.053.373.01-.001-.018-.399-.243-.54.009-.005.3.512.028.21.01-.001.014-.24-.125-.508.01-.004.172.427h.01l.106-.426.01.002-.035.42.01.003.292-.42.008.005-.189.379.006.007.446-.318.005.008-.679.917s-.22.588-.291.785a.131.131 0 01-.077.08l-.551.22-.145.128-.486.057.001.011zM31.214 26a4.177 4.177 0 100 8.354 4.177 4.177 0 000-8.354zm.615 4.273l.08.018-.025.077.008.005.118-.136-.004-.008-.177.035v.01zm.328.342l.04.01-.014.038.009.005.065-.07-.004-.008-.095.016v.01zm-.634 1.318l.012.007.012.009.011.01a.011.011 0 01.004.003l.008.009.01.013.009.013.007.014a.067.067 0 01.005.012c.003.004.004.008.005.011a.046.046 0 01.003.01.113.113 0 00.003.009h.01l.003-.009a.036.036 0 00.003-.01v-.033l-.006-.02a.054.054 0 00-.01-.018.037.037 0 00-.007-.012l-.005-.006a.133.133 0 00-.034-.027.101.101 0 00-.018-.007l-.009-.003h-.005l-.003-.001a.056.056 0 00-.015 0h-.011a.069.069 0 00-.01.002v.009l.008.004.009.005a.027.027 0 01.01.006zm.379.152l-.035.01-.078.023a3.13 3.13 0 00-.117.035l-.042.014-.18.063a1.953 1.953 0 00-.115.043l-.064.024a2.49 2.49 0 00-.139.055l-.015.006-.078.033-.03.013-.041.017-.003.002.006.014h.003l.042-.015.031-.011.08-.029.022-.008.051-.019.026-.01.057-.02.062-.022c.038-.014.077-.029.116-.042l.18-.064.082-.03.056-.018.018-.007a3.693 3.693 0 00.11-.039l.045-.016-.004-.015-.046.013zm-.81.14l.034-.01.13-.044.048-.017.012-.004.054-.018.06-.02.02-.008.031-.01.004-.002-.005-.015h-.003l-.032.008-.016.004-.067.016-.055.015-.042.013-.019.005a9.436 9.436 0 00-.132.043l-.105.037-.025.008-.013.005a3.37 3.37 0 00-.136.052l-.009.004-.035.014-.03.012-.002.001.005.015.034-.01.024-.008.025-.007.033-.01.068-.022.046-.015.097-.031zm.68-1.202v.01l.051.012-.017.05.008.004.081-.088-.004-.008-.119.02zm-.086-.122l.104-.155-.005-.007-.178.058v.01l.085.007-.015.084.009.003zm.555-.563l-.12.01v.01l.05.016-.021.048.007.006.088-.082-.004-.008zm-.557 1.334l-.247-.302-.013.006.064.359.13.15.006.004c.003 0 .006.002.01.004l.01.006a.146.146 0 01.012.008l.013.008.011.01.011.013.01.013c.004.004.006.008.009.013l.007.013.006.013.005.01a.05.05 0 01.002.01l.004.01h.01l.002-.01c.001-.002.003-.006.003-.01 0-.005.002-.01.001-.015v-.009l-.001-.009-.005-.019-.01-.019c-.003-.006-.008-.012-.013-.018a.112.112 0 00-.016-.015c-.005-.005-.011-.008-.017-.012l-.018-.007-.01-.002.01-.003.072-.018.004.001.009.005a.124.124 0 01.01.005c.005.002.008.005.012.008.005.002.008.006.012.009.004.003.009.006.012.01l.012.012.01.013.008.013c.003.005.006.009.007.014l.006.012a.052.052 0 01.005.011.08.08 0 01.006.018h.01l.003-.008.002-.01c.002-.005.002-.01.002-.016v-.008l-.002-.009c0-.007-.003-.013-.005-.02a.054.054 0 00-.01-.018c-.002-.007-.007-.013-.012-.019l-.016-.014a.091.091 0 00-.037-.02h-.003l.204-.05-.22-.123-.087.002zm.412-1.598l.062.027-.032.059.007.006.118-.092-.003-.009h-.15l-.002.01zm-2.172-1.367l-.28.143-.015-.083-.014.001-.001.138.011.005.306-.193-.007-.01zm.268.338l-.391.212-.015-.083-.013.002-.002.138.01.006.419-.264-.008-.011zm-.128-.173l-.37.196-.015-.083-.013.002-.002.137.01.005.397-.246-.007-.011zm.58.676l-.28.143-.016-.081-.012.001-.002.136.01.005.306-.192-.007-.012zm-.153-.166l-.338.175-.015-.083-.013.002-.002.137.01.006.365-.226-.007-.011zm-.15-.164l-.385.2-.015-.082-.013.001-.002.138.011.005.41-.25-.007-.012zm-.91-.211l.004-.016-.861-.236-.388-.316-.01.01.358.364.897.194zm.024-.176l.006-.015-.73-.236-.36-.339-.01.012.323.382.771.196zm2.332 1.182l.062.026-.033.059.007.006.119-.091-.003-.01h-.15l-.002.01zm-3.214-.831l.318.092.628.058.002-.017-.944-.149-.004.016zm.082-1.083l-.012.009.264.363.638.212.006-.015-.59-.244-.306-.325zm2.115 1.624l-.2.095-.015-.075h-.013l-.002.131.012.005.226-.145-.008-.011zm-1.327-.576l-1.194-.246-.004.015.31.114.884.134.004-.017zm.35-.547l.008-.015-.552-.265-.336-.448-.012.009.3.49.592.229zm2.333 3.43l.016-.002a1.36 1.36 0 00.1-.018 2.59 2.59 0 00.056-.013l.012-.003a1.692 1.692 0 00.122-.03.184.184 0 00.03-.008l.011-.003a.363.363 0 00.015-.005l.003-.001-.003-.015h-.003l-.016.002-.012.001a.943.943 0 00-.09.014 2.232 2.232 0 00-.191.048l-.03.01-.01.002-.014.006h-.003l.003.016h.004zm.505-.224s.008 0 .02-.003l.014-.001.04-.005a4.45 4.45 0 00.16-.027l.014-.003.071-.014.034-.007.04-.009.039-.009.014-.003a.817.817 0 00.02-.005h.002l-.002-.016h-.003l-.02.002-.013.001a1.396 1.396 0 00-.041.005h-.004l-.071.01-.084.016h-.002a3.76 3.76 0 00-.16.034l-.036.009-.015.004-.02.005h-.003l.003.016h.003zm-.434-.046l.01.006a.11.11 0 01.012.008l.012.009a.029.029 0 00.006.005l.006.005.01.012c.004.005.008.009.01.014a.135.135 0 01.009.013l.007.013.005.013.004.011.003.01a.073.073 0 01.003.009h.01l.003-.009a.084.084 0 00.004-.026v-.008l-.001-.009c0-.006-.003-.012-.005-.019-.002-.006-.004-.013-.008-.019-.003-.007-.008-.012-.013-.018l-.003-.004a.101.101 0 00-.012-.012l-.017-.012-.02-.008-.008-.002-.007-.001h-.001c-.005-.002-.01-.002-.014-.002a.05.05 0 00-.012 0l-.01.003v.008l.008.004.009.005zm.461-1.45l.002.009.003.008.004.006.002.005.004.003a.074.074 0 00.007.007l.006-.005-.001-.008v-.019c0-.004 0-.008.002-.011l.002-.006.003-.006c.002-.003.004-.007.007-.009l.005-.004.003-.004.002-.001.01-.006.014-.003.006-.001a.02.02 0 01.006 0h.005l.006.001.01.003.004.002.003.002.008.004.007-.006s0-.003-.003-.008a.013.013 0 00-.002-.004l-.004-.005-.005-.006a.022.022 0 00-.007-.005l-.007-.005-.009-.003a.047.047 0 00-.01-.003l-.01-.002a.062.062 0 00-.023.004c-.007.001-.014.006-.021.01l-.002.001-.001.001-.002.002-.003.003-.008.009a.075.075 0 00-.01.02c-.002.008-.004.015-.003.021v.01zm.017-.279v.003l.002.003.003.007c0 .003.005.01.008.014a.03.03 0 00.006.006l.005.005.01.006.004.002c.01.004.019.006.027.006h.005c.005-.001.01-.001.014-.003l.007-.002.002-.001.003-.002h.002a.073.073 0 00.02-.019.05.05 0 00.01-.022v-.002l.002-.008v-.009a.03.03 0 00-.003-.011l-.001-.003-.006-.01-.002-.003-.012.005v.011l-.001.003-.001.006-.002.005-.002.003-.002.002c0 .001 0 .002-.002.003l-.001.002-.005.004a.009.009 0 01-.003.002h-.002v.001l-.005.002a.05.05 0 01-.012.002.028.028 0 01-.01-.003l-.004-.002h-.002a.016.016 0 00-.003-.003l-.001-.001-.002-.002c-.001 0-.002-.001-.002-.003l-.003-.005v-.001a.027.027 0 01-.003-.006v-.014l.001-.003v-.003l.002-.002.002-.005a.039.039 0 00.004-.006l.008-.008.001-.001-.006-.014h-.003l-.011.003-.003.001c-.003.002-.007.003-.01.006l-.007.006a.013.013 0 00-.005.005l-.002.003a.055.055 0 00-.01.022v.026l.001.002zm.34.213l.005.007.005.006.007.015a.094.094 0 01.008.032v.016c0 .006-.002.01-.003.016l-.003.008-.004.008.008.004.005-.007.004-.009a.12.12 0 00.006-.018l.001-.01.001-.009-.001-.019a.065.065 0 00-.005-.019.092.092 0 00-.011-.026.13.13 0 00-.017-.024l-.117-.11-.028.033.128.096a.276.276 0 01.01.01zm-2.075-.007l-.004-.03-.013-.001-.013.08.01.006.15-.104-.008-.01-.122.06zm-.056-.35l-.142.062-.013-.057h-.012l-.006.11.01.005.17-.11-.007-.01zm.089.515l-.003-.03h-.013l-.013.079.01.007.107-.079-.006-.01-.082.033zm.07-.39l-.174.077-.006-.05h-.011l-.012.1.01.007.2-.123-.008-.01zm1.945 1.827l-.06.01a1.398 1.398 0 00-.113.02l-.023.004-.026.006-.051.01-.022.005-.03.007.003.015.03-.003.023-.003.051-.006.049-.008.014-.001.041-.006.072-.01.047-.007.047-.007.013-.002.058-.01.072-.01.032-.006.046-.008.027-.004.03-.006-.001-.015h-.003l-.028.002h-.01l-.065.006-.035.003-.07.008-.058.008-.06.008zm-2.562-.679l-.002.01.038.016-.02.035.007.007.076-.059-.003-.009h-.096zm.181 1.54l-.135-.06.131-.069-.003-.009-.199.055a.024.024 0 00-.017.017.026.026 0 00.016.033h.003l.193.063c.032.01.064.02.097.032l.097.033.003-.009-.092-.043c-.032-.015-.062-.03-.094-.043zm.089-1.54l-.002.01.038.016-.02.035.007.007.076-.059-.003-.009h-.096z" fill="#DC0028"/><path d="M8.87 26.126h-.501c-1.071 0-1.458.488-1.867 1.513l-.388.968H6v-2.595h7.059v2.595h-.114l-.386-.968c-.41-1.025-.787-1.513-1.867-1.513h-.502v6.569c0 .513.16 1.002.945 1.127l.284.046v.114H7.64v-.114l.286-.046c.784-.125.945-.614.945-1.127v-6.57zm6.615-.114v3.427c.216-.364.864-1.071 1.764-1.071.888 0 1.822.49 1.822 2.038v2.768c0 .295.114.535.49.637l.216.057v.114h-2.665v-.114l.218-.057c.374-.102.49-.342.49-.637V30.52c0-1.047-.605-1.423-1.197-1.423-.41 0-.82.216-1.138.467v3.61c0 .295.114.535.49.637l.215.057v.114h-2.664v-.114l.217-.057c.376-.102.49-.342.49-.637V26.82c0-.296-.114-.535-.49-.637l-.217-.057v-.114h1.96zm7.276 2.356c1.434 0 2.243.958 2.243 2.085v.056h-3.587c-.012.125-.012.262-.012.308 0 1.468.786 2.527 2.027 2.527a1.73 1.73 0 001.56-.98l.102.047c-.09.49-.831 1.74-2.334 1.74-1.618 0-2.596-1.217-2.596-2.913 0-1.503.978-2.87 2.596-2.87zm-1.344 2.016h2.31v-.364c0-.763-.215-1.526-.979-1.526-.82 0-1.195.751-1.331 1.89zm17.123 2.631c0 .533.166.994.982 1.16l.296.059v.06H35.89v-.06l.295-.06c.817-.165.983-.626.983-1.159v-5.713c0-.533-.166-1.005-.983-1.17l-.295-.06v-.059h3.927v.059l-.296.06c-.816.165-.981.637-.981 1.17v5.713zm9.51-5.276v6.731h-.082l-6.021-7.096.036 4.376c.012 1.987.638 2.248 1.36 2.437l.188.047v.06h-3.205v-.06l.19-.047c.71-.178 1.36-.462 1.36-2.437v-4.436l-.142-.153c-.627-.687-1.03-.97-1.68-1.089v-.059h2.875c.296.533.721 1.053 1.668 2.176l3.383 3.999-.036-4.26c-.011-1.418-.532-1.714-1.266-1.82l-.272-.036v-.059h7.44c3.076 0 4.65 1.94 4.65 4.104 0 2.165-1.574 4.176-4.65 4.176h-4.14v-.059l.284-.047c.84-.142.994-.627.994-1.172V27.74c0-1.265-.65-1.667-1.467-1.667-.817 0-1.467.402-1.467 1.668zm5.548 6.495c2.2 0 3.36-1.561 3.36-4.08 0-2.521-1.266-4.082-3.466-4.082h-1.136v6.932c0 .685.154 1.23.983 1.23h.259zm9.285 0c1.325 0 2.023-.379 2.591-1.349l.556-.933h.059v2.341h-7.31v-.059l.295-.047c.816-.13.982-.64.982-1.172v-5.748c0-.556-.166-.97-.981-1.136l-.296-.059v-.059h6.99v2.342h-.059l-.556-1.005c-.556-1.018-1.324-1.278-2.756-1.278h-.97v3.915l.592-.011c1.266-.023 1.691-.083 2.093-1.36l.13-.415h.06v3.632h-.06l-.13-.403c-.413-1.288-.816-1.336-2.093-1.36l-.592-.011v2.98c0 .71.26 1.195 1.1 1.195h.355zm7.748-8.22c1.857 0 3.159 1.017 3.159 2.472 0 1.466-1.302 2.483-3.16 2.483h-.507v-.07h.023c1.348 0 2.14-.935 2.14-2.413 0-1.48-.792-2.414-2.14-2.414h-.425v6.825c0 .888.224 1.088 1.194 1.29l.224.047v.06h-4.08v-.06l.296-.06c.815-.165.981-.626.981-1.159V27.29c0-.531-.166-.993-.981-1.159l-.296-.059v-.059h3.572zm7.594 8.22c1.325 0 2.023-.379 2.59-1.349l.557-.933h.058v2.341h-7.31v-.059l.296-.047c.817-.13.982-.64.982-1.172v-5.748c0-.556-.165-.97-.982-1.136l-.296-.059v-.059h6.991v2.342h-.06l-.555-1.005c-.556-1.018-1.324-1.278-2.756-1.278h-.97v3.915l.592-.011c1.265-.023 1.69-.083 2.093-1.36l.13-.415h.06v3.632h-.06l-.13-.403c-.414-1.288-.816-1.336-2.093-1.36l-.592-.011v2.98c0 .71.26 1.195 1.1 1.195h.355zm11.804-6.495v6.731h-.081l-6.022-7.096.036 4.376c.011 1.987.638 2.248 1.36 2.437l.19.047v.06h-3.207v-.06l.19-.047c.71-.178 1.36-.462 1.36-2.437v-4.436l-.142-.153c-.627-.687-1.029-.97-1.68-1.089v-.059h2.874c.296.533.723 1.053 1.668 2.176l3.384 3.999-.036-4.26c-.012-1.418-.532-1.714-1.266-1.82l-.272-.036v-.059h7.44c3.076 0 4.649 1.94 4.649 4.104 0 2.165-1.573 4.176-4.648 4.176h-4.14v-.059l.284-.047c.84-.142.993-.627.993-1.172V27.74c0-1.265-.65-1.667-1.466-1.667-.817 0-1.468.402-1.468 1.668zm5.548 6.495c2.2 0 3.36-1.561 3.36-4.08 0-2.521-1.266-4.082-3.466-4.082h-1.136v6.932c0 .685.154 1.23.982 1.23h.26zm9.286 0c1.324 0 2.023-.379 2.59-1.349l.557-.933h.058v2.341h-7.31v-.059l.296-.047c.816-.13.982-.64.982-1.172v-5.748c0-.556-.166-.97-.982-1.136l-.296-.059v-.059h6.99v2.342h-.058l-.556-1.005c-.556-1.018-1.325-1.278-2.756-1.278h-.97v3.915l.592-.011c1.265-.023 1.691-.083 2.093-1.36l.13-.415h.059v3.632h-.059l-.13-.403c-.414-1.288-.816-1.336-2.093-1.36l-.592-.011v2.98c0 .71.26 1.195 1.1 1.195h.355zm11.71-6.068c-.012-1.526-.533-1.952-1.266-2.058l-.272-.036v-.059h3.182v.059l-.272.036c-.733.106-1.266.532-1.266 2.058v6.304h-.082l-6.021-7.096.036 4.376c.011 1.987.638 2.248 1.359 2.437l.19.047v.06h-3.206v-.06l.19-.047c.709-.178 1.36-.462 1.36-2.437v-4.436l-.143-.153c-.626-.687-1.028-.97-1.679-1.089v-.059h2.875c.295.533.722 1.053 1.668 2.176l3.382 3.999-.035-4.022zm5.075-2.094h-.522c-1.111 0-1.572.568-1.998 1.632l-.403 1.006h-.058v-2.697H126v2.697h-.06l-.401-1.006c-.426-1.064-.875-1.632-1.999-1.632h-.521v6.943c0 .533.166 1.041.982 1.172l.296.047v.06h-3.928v-.06l.296-.047c.817-.13.983-.64.983-1.172v-6.943z" fill="#000"/></svg>