<svg width="133" height="61" viewBox="0 0 133 61" fill="none" xmlns="http://www.w3.org/2000/svg">
<path d="M62.212 22.5001C61.5155 21.8036 60.6887 21.2512 59.7788 20.8743C58.8688 20.4973 57.8935 20.3033 56.9086 20.3033H45.9688V40.3033H53.4688V27.8033H55.8731C56.5366 27.8033 57.1731 28.0667 57.6426 28.5355L60.2331 31.1243C60.7029 31.5928 60.9675 32.2287 60.9688 32.8921V40.3033H68.4688V31.8566C68.4674 29.8671 67.6761 27.9595 66.2687 26.5533L62.212 22.5001Z" fill="#FF4422"/>
<path d="M100.969 20.3033V27.7145C100.967 28.378 100.703 29.0138 100.233 29.4823L97.6407 32.0711C97.4086 32.3032 97.133 32.4874 96.8297 32.6131C96.5264 32.7387 96.2013 32.8034 95.873 32.8033H92.2703C93.0507 31.5953 93.4667 30.1882 93.4688 28.75V20.3033H85.9688V27.7145C85.9675 28.378 85.7029 29.0138 85.233 29.4823L82.6408 32.0711C82.4086 32.3032 82.133 32.4874 81.8297 32.6131C81.5264 32.7387 81.2013 32.8034 80.873 32.8033H78.4688V20.3033H70.9688V40.3033H81.9086C83.8983 40.3034 85.8065 39.5132 87.2136 38.1066L89.7188 35.6026V40.3033H96.9086C98.8983 40.3034 100.806 39.5132 102.214 38.1066L106.269 34.0533C107.676 32.6471 108.467 30.7395 108.469 28.75V20.3033H100.969Z" fill="#FF4422"/>
<path d="M25.9688 27.8033H30.9688V40.3033H38.4688V27.8033H43.4688V20.3033H25.9688V27.8033Z" fill="#FF4422"/>
</svg>
